<svg width="50" height="50" viewBox="0 0 50 50" fill="none" xmlns="http://www.w3.org/2000/svg">
<path fill-rule="evenodd" clip-rule="evenodd" d="M41.6666 2.08325C45.1185 2.08325 47.9166 4.88148 47.9166 8.33325V41.6666C47.9166 45.1185 45.1185 47.9166 41.6666 47.9166H8.33325C4.88148 47.9166 2.08325 45.1185 2.08325 41.6666V8.33325C2.08325 4.88148 4.88148 2.08325 8.33325 2.08325H41.6666ZM41.6666 6.24992C42.8172 6.24992 43.7499 7.18267 43.7499 8.33325V41.6666C43.7499 42.8172 42.8172 43.7499 41.6666 43.7499H31.2499V29.1664H35.5753C36.472 29.1664 37.268 28.5926 37.5518 27.7418L38.4747 24.973C38.812 23.9612 38.0589 22.9164 36.9924 22.9164H31.2499V18.7498C31.2499 17.7081 32.2916 16.6664 33.3333 16.6664H37.4999C38.6505 16.6664 39.5833 15.7337 39.5833 14.5831V13.1539C39.5833 12.481 39.1535 11.8776 38.5026 11.7059C35.7718 10.9852 33.3333 10.9852 33.3333 10.9852C28.1249 10.9852 24.9999 14.5831 24.9999 17.7081V22.9164H20.8333C19.6827 22.9164 18.7499 23.8491 18.7499 24.9997V27.083C18.7499 28.2337 19.6826 29.1664 20.8333 29.1664H24.9999V43.7499H8.33325C7.18267 43.7499 6.24992 42.8172 6.24992 41.6666V8.33325C6.24992 7.18267 7.18267 6.24992 8.33325 6.24992H41.6666Z" fill="#E5E5E5"/>
</svg>
