<svg width="122" height="130" viewBox="0 0 122 130" fill="none" xmlns="http://www.w3.org/2000/svg">
<path d="M75.1402 113.75V114.25H75.6402H100.854C103.948 114.25 106.396 111.567 106.396 108.333V21.6667C106.396 18.4334 103.948 15.7501 100.854 15.7501H20.1707C17.0765 15.7501 14.6281 18.4334 14.6281 21.6667V108.333C14.6281 111.567 17.0766 114.25 20.1707 114.25H60.5121H61.0121V113.75V75.8329V75.3329H60.5121H50.4268C47.951 75.3329 45.8841 73.166 45.8841 70.4162V64.9995C45.8841 62.2498 47.951 60.0829 50.4268 60.0829H60.5121H61.0121V59.5829V46.0413C61.0121 38.2079 68.3366 29.0619 80.6828 29.0619H80.6859H80.6975L80.7456 29.0623C80.7887 29.0628 80.8536 29.0637 80.9389 29.0654C81.1095 29.069 81.3619 29.0762 81.6861 29.0907C82.3345 29.1196 83.2694 29.1775 84.4097 29.2935C86.6918 29.5257 89.7897 29.9899 93.0589 30.9167C94.3829 31.2919 95.3109 32.6345 95.3109 34.2005V37.9163C95.3109 40.666 93.244 42.833 90.7682 42.833H80.6828C79.2465 42.833 77.8617 43.5983 76.85 44.685C75.8362 45.774 75.1402 47.2451 75.1402 48.7496V59.5829V60.0829H75.6402H89.5398C91.7356 60.0829 93.3815 62.425 92.6501 64.782L90.4162 71.9807C89.7884 74.0029 88.0416 75.3329 86.1098 75.3329H75.6402H75.1402V75.8329V113.75ZM100.854 5.91675C108.9 5.91675 115.482 12.934 115.482 21.6667V108.333C115.482 117.066 108.9 124.083 100.854 124.083H20.1707C12.125 124.083 5.54272 117.066 5.54272 108.333V21.6667C5.54272 12.934 12.125 5.91675 20.1707 5.91675H100.854Z" fill="#FF3333"/>
<path d="M93.0589 30.9167C89.7897 29.9899 86.6918 29.5257 84.4097 29.2935C83.2694 29.1775 82.3345 29.1196 81.6861 29.0907C81.3619 29.0762 81.1095 29.069 80.9389 29.0654C80.8536 29.0637 80.7887 29.0628 80.7456 29.0623L80.6975 29.0619H80.6859H80.6828C68.3366 29.0619 61.0121 38.2079 61.0121 46.0413V59.5829V60.0829H60.5121H50.4268C47.951 60.0829 45.8841 62.2498 45.8841 64.9995V70.4162C45.8841 73.166 47.951 75.3329 50.4268 75.3329H60.5121H61.0121V75.8329V113.75V114.25H60.5121H20.1707C17.0766 114.25 14.6281 111.567 14.6281 108.333V21.6667C14.6281 18.4334 17.0765 15.7501 20.1707 15.7501H100.854C103.948 15.7501 106.396 18.4334 106.396 21.6667V108.333C106.396 111.567 103.948 114.25 100.854 114.25H75.6402H75.1402V113.75V75.8329V75.3329H75.6402H86.1098C88.0416 75.3329 89.7884 74.0029 90.4162 71.9807L92.6501 64.782C93.3815 62.425 91.7356 60.0829 89.5398 60.0829H75.6402H75.1402V59.5829V48.7496C75.1402 47.2451 75.8362 45.774 76.85 44.685C77.8617 43.5983 79.2465 42.833 80.6828 42.833H90.7682C93.244 42.833 95.3109 40.666 95.3109 37.9163V34.2005C95.3109 32.6345 94.3829 31.2919 93.0589 30.9167ZM93.0589 30.9167L93.1937 30.441M100.854 5.91675C108.9 5.91675 115.482 12.934 115.482 21.6667V108.333C115.482 117.066 108.9 124.083 100.854 124.083H20.1707C12.125 124.083 5.54272 117.066 5.54272 108.333V21.6667C5.54272 12.934 12.125 5.91675 20.1707 5.91675H100.854Z" stroke="#FF3333"/>
</svg>
