<svg width="122" height="130" viewBox="0 0 122 130" fill="none" xmlns="http://www.w3.org/2000/svg">
<path d="M90.8704 65C90.8704 82.7074 77.515 97 61.1143 97C44.7136 97 31.3583 82.7074 31.3583 65C31.3583 47.2926 44.7136 33 61.1143 33C77.515 33 90.8704 47.2926 90.8704 65ZM61.1143 87.1667C72.5633 87.1667 81.785 77.2078 81.785 65C81.785 52.792 72.5633 42.8333 61.1143 42.8333C49.6651 42.8333 40.4436 52.792 40.4436 65C40.4436 77.2078 49.6651 87.1667 61.1143 87.1667Z" fill="#FF3333" stroke="#FF3333"/>
<path d="M86.8276 32.4999C86.8276 29.7502 88.8945 27.5833 91.3703 27.5833C93.8461 27.5833 95.913 29.7502 95.913 32.4999C95.913 35.2496 93.8461 37.4166 91.3703 37.4166C88.8945 37.4166 86.8276 35.2496 86.8276 32.4999Z" fill="#FF3333" stroke="#FF3333"/>
<path d="M95.7253 18.173C94.0626 17.2629 91.7241 16.5498 87.2685 16.1588C82.7021 15.7581 76.8041 15.7501 68.1741 15.7501H54.0546C45.4248 15.7501 39.5263 15.7581 34.96 16.1588C30.5048 16.5498 28.1664 17.2629 26.5036 18.173C22.6116 20.3031 19.4539 23.6983 17.4769 27.866C16.6357 29.6395 15.9738 32.1375 15.6104 36.9151C15.2378 41.8144 15.2302 48.145 15.2302 57.4167V72.5834C15.2302 81.8554 15.2378 88.1855 15.6104 93.085C15.9738 97.8628 16.6357 100.361 17.4769 102.134C19.4539 106.302 22.6116 109.697 26.5036 111.827C28.1663 112.737 30.5047 113.451 34.9601 113.841C39.5263 114.242 45.4247 114.25 54.0546 114.25H68.1741C76.8041 114.25 82.7021 114.242 87.2685 113.841C91.7241 113.451 94.0625 112.737 95.7253 111.827C99.6169 109.697 102.775 106.302 104.752 102.134C105.593 100.361 106.255 97.8629 106.618 93.0849C106.991 88.1855 106.998 81.8554 106.998 72.5834V57.4167C106.998 48.145 106.991 41.8144 106.618 36.9151C106.255 32.1375 105.593 29.6394 104.752 27.866C102.775 23.6983 99.6169 20.3031 95.7253 18.173ZM99.8234 9.39763C105.42 12.4607 109.977 17.3519 112.834 23.3763C114.446 26.7734 115.263 30.7176 115.673 36.1088C116.083 41.5048 116.084 48.3082 116.084 57.4167V72.5834C116.084 81.6919 116.083 88.4953 115.673 93.8914C115.263 99.2826 114.446 103.227 112.834 106.624C109.977 112.648 105.42 117.539 99.8234 120.602C96.6728 122.327 93.0138 123.203 88.0024 123.643C82.9841 124.083 76.6554 124.083 68.1741 124.083H54.0546C45.5732 124.083 39.2445 124.083 34.2262 123.643C29.2148 123.203 25.5558 122.327 22.4051 120.602C16.8087 117.54 12.252 112.648 9.39436 106.624C7.78298 103.227 6.96574 99.2826 6.55567 93.8914C6.14523 88.4953 6.1449 81.6919 6.1449 72.5834V57.4167C6.1449 48.3082 6.14523 41.5048 6.55567 36.1088C6.96574 30.7175 7.78297 26.7734 9.39436 23.3764C12.252 17.3519 16.8086 12.4607 22.4051 9.39764C25.5558 7.67317 29.2148 6.79743 34.2262 6.35762C39.2445 5.9172 45.5732 5.91675 54.0546 5.91675H68.1741C76.6554 5.91675 82.9841 5.9172 88.0024 6.35762C93.0138 6.79743 96.6728 7.67317 99.8234 9.39763Z" fill="#FF3333"/>
<path d="M95.7253 18.173L95.5237 18.5412M95.7253 18.173C94.0626 17.2629 91.7241 16.5498 87.2685 16.1588C82.7021 15.7581 76.8041 15.7501 68.1741 15.7501H54.0546C45.4248 15.7501 39.5263 15.7581 34.96 16.1588C30.5048 16.5498 28.1664 17.2629 26.5036 18.173C22.6116 20.3031 19.4539 23.6983 17.4769 27.866C16.6357 29.6395 15.9738 32.1375 15.6104 36.9151M95.7253 18.173C99.6169 20.3031 102.775 23.6983 104.752 27.866C105.593 29.6394 106.255 32.1375 106.618 36.9151C106.991 41.8144 106.998 48.145 106.998 57.4167V72.5834C106.998 81.8554 106.991 88.1855 106.618 93.0849C106.255 97.8629 105.593 100.361 104.752 102.134C102.775 106.302 99.6169 109.697 95.7253 111.827C94.0625 112.737 91.7241 113.451 87.2685 113.841C82.7021 114.242 76.8041 114.25 68.1741 114.25H54.0546C45.4247 114.25 39.5263 114.242 34.9601 113.841C30.5047 113.451 28.1663 112.737 26.5036 111.827C22.6116 109.697 19.4539 106.302 17.4769 102.134C16.6357 100.361 15.9738 97.8628 15.6104 93.085C15.2378 88.1855 15.2302 81.8554 15.2302 72.5834V57.4167C15.2302 48.145 15.2378 41.8144 15.6104 36.9151M15.6104 36.9151L16.1043 36.9527M99.8234 9.39763L100.063 8.95903M99.8234 9.39763C105.42 12.4607 109.977 17.3519 112.834 23.3763M99.8234 9.39763C96.6728 7.67317 93.0138 6.79743 88.0024 6.35762C82.9841 5.9172 76.6554 5.91675 68.1741 5.91675H54.0546C45.5732 5.91675 39.2445 5.9172 34.2262 6.35762C29.2148 6.79743 25.5558 7.67317 22.4051 9.39764M112.834 23.3763L113.286 23.1621M112.834 23.3763C114.446 26.7734 115.263 30.7176 115.673 36.1088C116.083 41.5048 116.084 48.3082 116.084 57.4167V72.5834C116.084 81.6919 116.083 88.4953 115.673 93.8914C115.263 99.2826 114.446 103.227 112.834 106.624M112.834 106.624L113.244 106.818M112.834 106.624C109.977 112.648 105.42 117.539 99.8234 120.602M99.8234 120.602L100.063 121.041M99.8234 120.602C96.6728 122.327 93.0138 123.203 88.0024 123.643C82.9841 124.083 76.6554 124.083 68.1741 124.083H54.0546C45.5732 124.083 39.2445 124.083 34.2262 123.643C29.2148 123.203 25.5558 122.327 22.4051 120.602M22.4051 120.602L22.165 121.041M22.4051 120.602C16.8087 117.54 12.252 112.648 9.39436 106.624M9.39436 106.624L8.9426 106.838M9.39436 106.624C7.78298 103.227 6.96574 99.2826 6.55567 93.8914C6.14523 88.4953 6.1449 81.6919 6.1449 72.5834V57.4167C6.1449 48.3082 6.14523 41.5048 6.55567 36.1088C6.96574 30.7175 7.78297 26.7734 9.39436 23.3764M9.39436 23.3764L8.9426 23.1621M9.39436 23.3764C12.252 17.3519 16.8086 12.4607 22.4051 9.39764M22.4051 9.39764L22.1716 8.97114" stroke="#FF3333"/>
</svg>
