<svg width="50" height="50" viewBox="0 0 50 50" fill="none" xmlns="http://www.w3.org/2000/svg">
<path fill-rule="evenodd" clip-rule="evenodd" d="M25 37.5C31.9035 37.5 37.5 31.9035 37.5 25C37.5 18.0964 31.9035 12.5 25 12.5C18.0964 12.5 12.5 18.0964 12.5 25C12.5 31.9035 18.0964 37.5 25 37.5ZM25 33.3333C29.6023 33.3333 33.3333 29.6023 33.3333 25C33.3333 20.3976 29.6023 16.6667 25 16.6667C20.3976 16.6667 16.6667 20.3976 16.6667 25C16.6667 29.6023 20.3976 33.3333 25 33.3333Z" fill="#E5E5E5"/>
<path d="M37.5001 10.4167C36.3495 10.4167 35.4167 11.3495 35.4167 12.5001C35.4167 13.6507 36.3495 14.5834 37.5001 14.5834C38.6507 14.5834 39.5834 13.6507 39.5834 12.5001C39.5834 11.3495 38.6507 10.4167 37.5001 10.4167Z" fill="#E5E5E5"/>
<path fill-rule="evenodd" clip-rule="evenodd" d="M3.44567 8.90838C2.08325 11.5823 2.08325 15.0826 2.08325 22.0833V27.9166C2.08325 34.9172 2.08325 38.4176 3.44567 41.0914C4.64409 43.4435 6.55634 45.3558 8.90838 46.5541C11.5823 47.9166 15.0826 47.9166 22.0833 47.9166H27.9166C34.9172 47.9166 38.4176 47.9166 41.0914 46.5541C43.4435 45.3558 45.3558 43.4435 46.5541 41.0914C47.9166 38.4176 47.9166 34.9172 47.9166 27.9166V22.0833C47.9166 15.0826 47.9166 11.5823 46.5541 8.90838C45.3558 6.55634 43.4435 4.64409 41.0914 3.44567C38.4176 2.08325 34.9172 2.08325 27.9166 2.08325H22.0833C15.0826 2.08325 11.5823 2.08325 8.90838 3.44567C6.55634 4.64409 4.64409 6.55634 3.44567 8.90838ZM27.9166 6.24992H22.0833C18.5142 6.24992 16.0879 6.25317 14.2126 6.40638C12.3858 6.55563 11.4517 6.82615 10.8 7.15819C9.23198 7.95715 7.95715 9.23198 7.15819 10.8C6.82615 11.4517 6.55563 12.3858 6.40638 14.2126C6.25317 16.0879 6.24992 18.5142 6.24992 22.0833V27.9166C6.24992 31.4858 6.25317 33.9118 6.40638 35.7872C6.55563 37.6141 6.82615 38.5483 7.15819 39.1999C7.95715 40.7678 9.23198 42.0426 10.8 42.8416C11.4517 43.1737 12.3858 43.4443 14.2126 43.5935C16.0879 43.7466 18.5142 43.7499 22.0833 43.7499H27.9166C31.4858 43.7499 33.9118 43.7466 35.7872 43.5935C37.6141 43.4443 38.5483 43.1737 39.1999 42.8416C40.7678 42.0426 42.0426 40.7678 42.8416 39.1999C43.1737 38.5483 43.4443 37.6141 43.5935 35.7872C43.7466 33.9118 43.7499 31.4858 43.7499 27.9166V22.0833C43.7499 18.5142 43.7466 16.0879 43.5935 14.2126C43.4443 12.3858 43.1737 11.4517 42.8416 10.8C42.0426 9.23198 40.7678 7.95715 39.1999 7.15819C38.5483 6.82615 37.6141 6.55563 35.7872 6.40638C33.9118 6.25317 31.4858 6.24992 27.9166 6.24992Z" fill="#E5E5E5"/>
</svg>
