<svg width="50" height="50" viewBox="0 0 50 50" fill="none" xmlns="http://www.w3.org/2000/svg">
<path d="M10.4167 20.8333C10.4167 19.6827 11.3495 18.75 12.5001 18.75H14.5834C15.734 18.75 16.6667 19.6827 16.6667 20.8333V37.5C16.6667 38.6506 15.734 39.5833 14.5834 39.5833H12.5001C11.3495 39.5833 10.4167 38.6506 10.4167 37.5V20.8333Z" fill="#E5E5E5"/>
<path d="M22.9166 39.5833H24.9999C26.1505 39.5833 27.0833 38.6506 27.0833 37.5V28.125C27.0833 25 33.3333 22.9167 33.3333 27.0833V37.5008C33.3333 38.6515 34.266 39.5833 35.4166 39.5833H37.4999C38.6505 39.5833 39.5833 38.6506 39.5833 37.5V25C39.5833 20.8333 36.4583 18.75 32.2916 18.75C28.1249 18.75 27.0833 21.875 27.0833 21.875V20.8333C27.0833 19.6827 26.1505 18.75 24.9999 18.75H22.9166C21.766 18.75 20.8333 19.6827 20.8333 20.8333V37.5C20.8333 38.6506 21.766 39.5833 22.9166 39.5833Z" fill="#E5E5E5"/>
<path d="M13.5415 16.6667C15.2674 16.6667 16.6665 15.2676 16.6665 13.5417C16.6665 11.8159 15.2674 10.4167 13.5415 10.4167C11.8156 10.4167 10.4165 11.8159 10.4165 13.5417C10.4165 15.2676 11.8156 16.6667 13.5415 16.6667Z" fill="#E5E5E5"/>
<path fill-rule="evenodd" clip-rule="evenodd" d="M41.6666 2.08325C45.1185 2.08325 47.9166 4.88148 47.9166 8.33325V41.6666C47.9166 45.1185 45.1185 47.9166 41.6666 47.9166H8.33325C4.88148 47.9166 2.08325 45.1185 2.08325 41.6666V8.33325C2.08325 4.88148 4.88148 2.08325 8.33325 2.08325H41.6666ZM41.6666 6.24992C42.8172 6.24992 43.7499 7.18267 43.7499 8.33325V41.6666C43.7499 42.8172 42.8172 43.7499 41.6666 43.7499H8.33325C7.18267 43.7499 6.24992 42.8172 6.24992 41.6666V8.33325C6.24992 7.18267 7.18267 6.24992 8.33325 6.24992H41.6666Z" fill="#E5E5E5"/>
</svg>
