<svg width="122" height="130" viewBox="0 0 122 130" fill="none" xmlns="http://www.w3.org/2000/svg">
<path d="M25.9177 54.1667C25.9177 51.417 27.9847 49.25 30.4604 49.25H35.5031C37.9788 49.25 40.0457 51.4169 40.0457 54.1667V97.5C40.0457 100.25 37.9788 102.417 35.5031 102.417H30.4604C27.9847 102.417 25.9177 100.25 25.9177 97.5V54.1667Z" fill="#FF3333" stroke="#FF3333"/>
<path d="M65.2591 56.875L66.2344 57.0228C66.2365 57.0236 66.2365 57.0236 66.2365 57.0236L66.2372 57.0216L66.2414 57.0085C66.2455 56.9961 66.2522 56.9763 66.2616 56.9496C66.2803 56.8963 66.3099 56.8155 66.3516 56.7112C66.4349 56.5024 66.5661 56.2 66.7548 55.8352C67.1326 55.1047 67.7382 54.1288 68.6464 53.1532C70.4534 51.2122 73.4768 49.25 78.3658 49.25C83.3243 49.25 87.6093 50.5816 90.6466 53.1917C93.6731 55.7925 95.5152 59.7086 95.5152 65V97.5C95.5152 100.25 93.4483 102.417 90.9725 102.417H85.9298C83.4537 102.417 81.3872 100.252 81.3872 97.5022V70.4167C81.3872 67.5868 80.3914 65.7074 78.7889 64.7033C77.2126 63.7155 75.1646 63.6492 73.1935 64.1786C71.215 64.7099 69.2437 65.8572 67.7617 67.4048C66.2791 68.9532 65.2591 70.9331 65.2591 73.125V97.5C65.2591 100.25 63.1923 102.417 60.7165 102.417H55.6738C53.1979 102.417 51.1311 100.25 51.1311 97.5V54.1667C51.1311 51.417 53.1979 49.25 55.6738 49.25H60.7165C63.1923 49.25 65.2591 51.4169 65.2591 54.1667V56.875Z" fill="#FF3333" stroke="#FF3333"/>
<path d="M40.0454 35.2085C40.0454 39.454 36.8496 42.8335 32.9814 42.8335C29.1131 42.8335 25.9174 39.454 25.9174 35.2085C25.9174 30.963 29.1131 27.5835 32.9814 27.5835C36.8496 27.5835 40.0454 30.963 40.0454 35.2085Z" fill="#FF3333" stroke="#FF3333"/>
<path d="M101.058 5.91675C109.104 5.91675 115.686 12.934 115.686 21.6667V108.333C115.686 117.066 109.104 124.083 101.058 124.083H20.3751C12.3294 124.083 5.74707 117.066 5.74707 108.333V21.6667C5.74707 12.934 12.3294 5.91675 20.3751 5.91675H101.058ZM106.601 21.6667C106.601 18.4334 104.152 15.7501 101.058 15.7501H20.3751C17.2809 15.7501 14.8324 18.4334 14.8324 21.6667V108.333C14.8324 111.567 17.2809 114.25 20.3751 114.25H101.058C104.152 114.25 106.601 111.567 106.601 108.333V21.6667Z" fill="#FF3333" stroke="#FF3333"/>
</svg>
