<svg width="1956" height="582" viewBox="0 0 1956 582" fill="none" xmlns="http://www.w3.org/2000/svg">
<path d="M987.086 126.507H934.913V310.111H987.086V126.507Z" fill="#2B2B2B"/>
<path d="M1164.11 121.203H757.89V181.228H1164.11V121.203Z" fill="#2B2B2B"/>
<path d="M775.083 318.927H840.48L839.609 329.533H773.867L775.083 318.927Z" fill="#2B2B2B"/>
<path d="M1148.12 329.533H1082.38L1081.52 318.927H1146.92L1148.12 329.533Z" fill="#2B2B2B"/>
<path d="M1191.05 128.268H730.952L705 70H1217L1191.05 128.268Z" fill="#2B2B2B"/>
<path d="M855.349 180.36L854.484 190.963L844.01 318.927V318.938L843.145 329.533L842.848 333.062L832.083 464.871H758.482L773.47 333.062L773.874 329.533L775.089 318.938V318.927L789.643 190.963L790.843 180.36L794.164 151.223H854.201L855.349 180.36Z" fill="#2B2B2B"/>
<path d="M1163.52 464.871H1089.91L1079.14 333.062L1078.87 329.533L1077.99 318.938V318.927L1067.53 190.963L1066.66 180.36L1067.8 151.223H1127.84L1131.15 180.36L1132.36 190.963L1146.92 318.927V318.938L1148.52 333.062L1163.52 464.871Z" fill="#2B2B2B"/>
<path d="M752.379 518.444H827.702L832.083 464.871H758.467L752.379 518.444Z" fill="#2B2B2B"/>
<path d="M1089.92 464.871L1094.3 518.444H1169.62L1163.52 464.871H1089.92Z" fill="#2B2B2B"/>
<path d="M790.837 180.36H855.341L854.47 190.963H789.635L790.837 180.36Z" fill="#2B2B2B"/>
<path d="M987.086 180.36H934.913V190.962H987.086V180.36Z" fill="#2B2B2B"/>
<path d="M1132.35 190.963H1067.53L1066.65 180.36H1131.16L1132.35 190.963Z" fill="#2B2B2B"/>
<path d="M775.089 318.938H844.01L843.145 329.533L842.848 333.062H773.47L775.089 318.938Z" fill="#2B2B2B"/>
<path d="M1148.52 333.062H1079.14L1078.87 329.533L1077.99 318.938H1146.92L1148.52 333.062Z" fill="#2B2B2B"/>
<path d="M1206.99 262.445H715.004V322.47H1206.99V262.445Z" fill="#2B2B2B"/>
<path d="M375.149 305.997C376.855 305.994 378.561 305.991 380.267 305.986C384.878 305.977 389.489 305.981 394.101 305.987C398.934 305.992 403.768 305.987 408.602 305.984C416.715 305.981 424.827 305.985 432.94 305.995C442.315 306.006 451.689 306.002 461.063 305.991C469.122 305.982 477.181 305.981 485.24 305.986C490.049 305.989 494.858 305.99 499.667 305.983C504.185 305.977 508.704 305.981 513.222 305.993C514.879 305.995 516.536 305.995 518.193 305.99C520.456 305.985 522.72 305.992 524.983 306.002C526.249 306.002 527.515 306.003 528.819 306.004C534.085 306.39 537.276 307.364 541.187 310.943C543.25 314.256 543.25 314.256 543.437 317.756C541.997 322.002 540.213 325.015 536.25 327.256C527.687 328.908 518.767 328.562 510.076 328.685C508.859 328.716 507.641 328.747 506.387 328.779C504.727 328.809 504.727 328.809 503.034 328.839C500.255 329.033 500.255 329.033 498.429 330.598C495.818 334.269 495.939 337.906 496.25 342.256C497.281 344.066 497.281 344.066 499.25 345.256C502.348 345.843 502.348 345.843 505.997 345.932C506.696 345.965 507.394 345.998 508.113 346.032C517.11 346.411 526.12 346.408 535.123 346.424C538.365 346.432 541.606 346.447 544.847 346.466C554.05 346.518 563.252 346.566 572.454 346.582C578.114 346.592 583.773 346.621 589.433 346.663C591.58 346.675 593.728 346.68 595.876 346.678C598.867 346.676 601.857 346.698 604.848 346.726C606.172 346.716 606.172 346.716 607.523 346.706C611.594 346.768 613.71 346.914 617.224 349.136C620.067 352.11 621.951 354.593 622.687 358.693C622.072 362.299 620.518 364.421 618.25 367.256C609.295 372.752 595.219 370.382 585.022 370.35C583.198 370.348 581.373 370.347 579.549 370.346C575.641 370.344 571.732 370.339 567.824 370.333C561.642 370.324 555.461 370.33 549.279 370.339C547.71 370.341 547.71 370.341 546.11 370.343C543.973 370.346 541.837 370.349 539.7 370.352C525.322 370.374 510.944 370.387 496.566 370.355C486.846 370.334 477.127 370.337 467.407 370.369C462.269 370.385 457.132 370.388 451.995 370.361C447.169 370.336 442.344 370.343 437.518 370.376C435.748 370.382 433.979 370.376 432.209 370.357C423.173 369.943 423.173 369.943 414.873 372.745C411.485 376.5 410.25 380.14 410.25 385.256C411.273 389.255 412.888 391.842 416.25 394.256C423.963 395.473 431.687 395.439 439.48 395.502C440.843 395.517 442.206 395.534 443.569 395.55C449.313 395.621 455.058 395.681 460.802 395.732C464.334 395.764 467.865 395.806 471.396 395.853C473.38 395.876 475.364 395.889 477.348 395.902C478.56 395.919 479.772 395.936 481.02 395.953C482.081 395.963 483.142 395.973 484.235 395.984C488.529 396.371 492.027 397.396 495.562 399.881C497.895 403.163 498.447 406.31 498.25 410.256C496.383 415.562 496.383 415.562 493.412 417.381C485.711 420.496 475.974 419.398 467.83 419.383C466.494 419.384 465.158 419.385 463.821 419.387C460.173 419.392 456.525 419.39 452.877 419.386C448.932 419.384 444.988 419.388 441.044 419.39C433.324 419.395 425.604 419.394 417.885 419.391C411.604 419.389 405.324 419.388 399.043 419.39C398.147 419.39 397.252 419.39 396.329 419.39C394.51 419.39 392.691 419.391 390.871 419.391C373.819 419.394 356.767 419.391 339.715 419.385C325.115 419.381 310.514 419.381 295.914 419.386C278.933 419.391 261.953 419.394 244.973 419.39C243.158 419.39 241.343 419.39 239.528 419.39C238.635 419.389 237.742 419.389 236.822 419.389C230.56 419.388 224.298 419.39 218.036 419.392C210.388 419.395 202.74 419.394 195.093 419.389C191.198 419.386 187.303 419.385 183.408 419.388C156.574 419.409 156.574 419.409 145.58 418.873C144.884 418.842 144.188 418.812 143.472 418.781C139.714 418.554 136.597 418.016 133.25 416.256C130.615 412.258 129.377 409.007 130.25 404.256C132.394 400.783 134.48 397.699 138.564 396.677C141.099 396.279 143.459 396.121 146.021 396.104C146.955 396.096 147.889 396.088 148.851 396.079C149.865 396.075 150.88 396.071 151.925 396.066C153.006 396.058 154.087 396.05 155.2 396.041C158.798 396.014 162.395 395.994 165.992 395.974C168.529 395.957 171.066 395.939 173.603 395.92C178.296 395.887 182.988 395.854 187.681 395.824C196.719 395.767 205.757 395.698 214.796 395.624C216.18 395.613 217.564 395.601 218.948 395.59C221.015 395.573 223.082 395.557 225.149 395.54C259.722 395.26 259.722 395.26 276.735 395.183C282.873 395.155 289.01 395.113 295.148 395.054C298.409 395.024 301.668 395.005 304.928 395.003C308.397 395 311.864 394.968 315.332 394.928C316.792 394.938 316.792 394.938 318.281 394.949C323.597 394.906 323.597 394.906 327.807 391.839C330.213 387.531 330.781 384.186 330.25 379.256C328.586 375.512 326.687 373.434 323.25 371.256C320.965 370.816 320.965 370.816 318.501 370.887C317.094 370.876 317.094 370.876 315.658 370.866C314.147 370.875 314.147 370.875 312.605 370.885C310.463 370.867 308.32 370.85 306.178 370.832C302.807 370.822 299.437 370.818 296.066 370.82C292.808 370.816 289.551 370.789 286.293 370.76C285.292 370.768 284.29 370.776 283.259 370.784C277.049 370.719 273.325 369.906 268.25 366.256C265.836 363.108 265.784 360.137 266.25 356.256C268.589 351.838 270.711 349.325 275.25 347.256C278.481 346.814 281.686 346.828 284.943 346.839C285.914 346.831 286.886 346.822 287.887 346.813C291.099 346.788 294.311 346.784 297.523 346.779C299.767 346.765 302.011 346.749 304.255 346.732C310.171 346.69 316.086 346.665 322.002 346.644C331.435 346.609 340.867 346.547 350.299 346.486C353.575 346.467 356.851 346.455 360.127 346.444C377.918 347.101 377.918 347.101 395.25 344.256C395.331 342.506 395.389 340.756 395.437 339.006C395.49 337.544 395.49 337.544 395.543 336.053C395.189 332.672 394.872 331.447 392.25 329.256C389.302 328.781 386.71 328.559 383.75 328.506C382.915 328.474 382.08 328.442 381.22 328.409C376.814 328.262 372.423 328.252 368.016 328.345C367.174 328.36 366.333 328.374 365.467 328.389C363.863 328.424 362.26 328.479 360.658 328.555C355.018 328.696 351.905 327.471 347.25 324.256C344.602 320.917 344.815 317.385 345.25 313.256C346.687 310.443 346.687 310.443 349.25 308.256C357.732 305.618 366.362 305.973 375.149 305.997Z" fill="#2B2B2B"/>
<path d="M275.25 368.256C292.08 368.256 308.91 368.256 326.25 368.256C326.91 369.576 327.57 370.896 328.25 372.256C327.166 372.014 327.166 372.014 326.061 371.768C323.407 371.284 320.969 371.1 318.276 371.05C317.316 371.03 316.355 371.01 315.365 370.99C313.829 370.965 313.829 370.965 312.262 370.939C311.203 370.918 310.145 370.898 309.055 370.876C305.682 370.811 302.31 370.752 298.938 370.693C296.648 370.65 294.358 370.606 292.068 370.562C286.462 370.455 280.856 370.354 275.25 370.256C275.25 369.596 275.25 368.936 275.25 368.256Z" fill="#2B2B2B"/>
<path d="M495.25 344.256C495.76 344.409 496.271 344.562 496.797 344.72C500.025 345.425 503.204 345.604 506.5 345.818C507.763 345.902 509.027 345.986 510.328 346.072C511.292 346.133 512.257 346.193 513.25 346.256C513.25 346.586 513.25 346.916 513.25 347.256C510.438 347.724 510.438 347.724 507.625 348.193C506.059 348.454 506.059 348.454 504.461 348.72C503.401 348.897 502.342 349.074 501.25 349.256C499.692 349.536 499.692 349.536 498.102 349.822C495.25 350.256 495.25 350.256 491.25 350.256C491.25 348.606 491.25 346.956 491.25 345.256C491.91 345.256 492.57 345.256 493.25 345.256C493.25 346.246 493.25 347.236 493.25 348.256C493.91 348.256 494.57 348.256 495.25 348.256C495.25 346.936 495.25 345.616 495.25 344.256Z" fill="#2B2B2B"/>
<path d="M501.75 325.881C505.274 325.939 506.176 326.207 509.25 328.256C508.635 328.293 508.02 328.33 507.387 328.369C506.174 328.468 506.174 328.468 504.938 328.568C504.137 328.626 503.336 328.684 502.512 328.744C498.626 329.623 497.399 332.032 495.25 335.256C494.26 334.926 493.27 334.596 492.25 334.256C492.25 332.276 492.25 330.296 492.25 328.256C492.91 328.916 493.57 329.576 494.25 330.256C494.714 329.266 494.714 329.266 495.188 328.256C497.651 325.867 498.419 325.935 501.75 325.881Z" fill="#2B2B2B"/>
<path d="M495.25 401.256C495.91 401.586 496.57 401.916 497.25 402.256C498.112 405.487 498.556 407.48 497.312 410.631C496.962 411.167 496.611 411.703 496.25 412.256C495.59 412.256 494.93 412.256 494.25 412.256C494.25 411.266 494.25 410.276 494.25 409.256C493.26 410.246 492.27 411.236 491.25 412.256C493.125 407.506 493.125 407.506 494.25 405.256C493.59 405.256 492.93 405.256 492.25 405.256C492.25 404.596 492.25 403.936 492.25 403.256C493.24 402.596 494.23 401.936 495.25 401.256Z" fill="#2B2B2B"/>
<path d="M540.25 315.256C541.24 315.586 542.23 315.916 543.25 316.256C542.5 321.006 542.5 321.006 540.25 323.256C538.262 323.653 536.261 323.993 534.25 324.256C535.25 322.256 535.25 322.256 536.25 321.256C535.26 321.256 534.27 321.256 533.25 321.256C533.25 320.596 533.25 319.936 533.25 319.256C535.23 318.926 537.21 318.596 539.25 318.256C539.58 317.266 539.91 316.276 540.25 315.256Z" fill="#2B2B2B"/>
<path d="M394.25 345.256C394.58 346.576 394.91 347.896 395.25 349.256C392.61 349.586 389.97 349.916 387.25 350.256C387.58 349.596 387.91 348.936 388.25 348.256C385.61 347.926 382.97 347.596 380.25 347.256C380.25 346.926 380.25 346.596 380.25 346.256C382.208 346.088 384.167 345.922 386.125 345.756C387.761 345.616 387.761 345.616 389.43 345.474C391.033 345.35 392.642 345.256 394.25 345.256Z" fill="#2B2B2B"/>
<path d="M329.25 389.256C329.58 389.256 329.91 389.256 330.25 389.256C330.25 390.906 330.25 392.556 330.25 394.256C329.59 394.256 328.93 394.256 328.25 394.256C328.25 394.916 328.25 395.576 328.25 396.256C328.91 396.586 329.57 396.916 330.25 397.256C327.94 397.586 325.63 397.916 323.25 398.256C325.085 395.109 326.946 392.083 329.25 389.256Z" fill="#2B2B2B"/>
<path d="M266.25 361.256C268.625 361.068 268.625 361.068 271.25 361.256C273.25 364.256 273.25 364.256 272.875 366.443C272.669 367.041 272.463 367.639 272.25 368.256C269.257 367.158 268.404 366.579 267 363.631C266.752 362.847 266.505 362.063 266.25 361.256Z" fill="#2B2B2B"/>
<path d="M404.25 382.256C405.24 382.256 406.23 382.256 407.25 382.256C408.375 388.006 408.375 388.006 407.25 390.256C405.93 390.256 404.61 390.256 403.25 390.256C403.58 387.616 403.91 384.976 404.25 382.256Z" fill="#2B2B2B"/>
<path d="M414.25 369.256C414.91 369.586 415.57 369.916 416.25 370.256C414.88 373.417 414.261 374.248 411.25 376.256C410.59 375.926 409.93 375.596 409.25 375.256C408.92 375.916 408.59 376.576 408.25 377.256C408.25 376.266 408.25 375.276 408.25 374.256C409.24 374.256 410.23 374.256 411.25 374.256C411.374 373.616 411.498 372.977 411.625 372.318C411.831 371.637 412.037 370.957 412.25 370.256C412.91 369.926 413.57 369.596 414.25 369.256Z" fill="#2B2B2B"/>
<path d="M493.25 413.256C493.91 414.246 494.57 415.236 495.25 416.256C491.616 418.582 488.479 418.418 484.25 418.256C484.58 417.596 484.91 416.936 485.25 416.256C487.572 415.551 489.906 414.883 492.25 414.256C492.58 413.926 492.91 413.596 493.25 413.256Z" fill="#2B2B2B"/>
<path d="M137.25 398.256C137.25 401.256 137.25 401.256 135.375 403.443C133.25 405.256 133.25 405.256 131.25 405.256C131.438 403.443 131.438 403.443 132.25 401.256C134.812 399.506 134.812 399.506 137.25 398.256Z" fill="#2B2B2B"/>
<path d="M63.613 233.122C64.9224 233.118 66.2319 233.113 67.581 233.109C69.0304 233.109 70.4798 233.11 71.9292 233.11C73.457 233.107 74.9848 233.104 76.5125 233.1C80.6613 233.091 84.8101 233.089 88.9589 233.088C91.5514 233.088 94.1438 233.085 96.7363 233.083C105.782 233.074 114.827 233.069 123.873 233.07C132.302 233.071 140.732 233.06 149.161 233.045C156.401 233.031 163.64 233.026 170.879 233.027C175.202 233.027 179.525 233.024 183.847 233.014C187.914 233.004 191.98 233.004 196.046 233.011C197.537 233.012 199.027 233.01 200.518 233.004C202.556 232.996 204.595 233.002 206.633 233.008C208.343 233.007 208.343 233.007 210.087 233.007C214.6 233.362 218.127 233.988 221.188 237.443C222.602 241.188 222.298 243.414 221.25 247.256C218.985 250.125 217.733 251.095 214.25 252.256C211.821 252.385 209.415 252.465 206.984 252.502C205.522 252.535 204.06 252.568 202.598 252.601C200.303 252.648 198.008 252.693 195.712 252.732C193.49 252.772 191.269 252.824 189.047 252.877C188.371 252.885 187.694 252.893 186.997 252.902C182.467 253.018 178.501 253.668 174.25 255.256C171.755 259.153 170.98 261.851 171.375 266.443C172.219 270.12 172.667 271.637 175.25 274.256C177.695 274.896 177.695 274.896 180.516 274.856C181.613 274.887 182.71 274.918 183.84 274.95C185.048 274.963 186.256 274.976 187.5 274.99C188.774 275.019 190.048 275.048 191.361 275.077C195.657 275.17 199.953 275.217 204.25 275.256C205.383 275.266 205.383 275.266 206.539 275.277C212.13 275.327 217.721 275.363 223.312 275.396C224.125 275.401 224.937 275.406 225.774 275.411C228.254 275.426 230.735 275.44 233.215 275.455C234.037 275.46 234.859 275.465 235.706 275.47C239.945 275.493 244.183 275.507 248.422 275.506C252.612 275.505 256.801 275.529 260.991 275.568C262.567 275.578 264.142 275.58 265.718 275.572C267.899 275.563 270.077 275.584 272.258 275.612C273.492 275.616 274.725 275.619 275.997 275.623C280.137 276.428 281.609 278.044 284.25 281.256C285.778 284.312 285.482 286.885 285.25 290.256C283.71 293.076 282.817 294.071 279.732 295.073C272.743 296.051 265.925 296.553 258.87 296.55C257.79 296.557 256.711 296.565 255.599 296.572C252.018 296.594 248.437 296.602 244.856 296.61C242.275 296.622 239.693 296.635 237.112 296.649C229.4 296.689 221.688 296.709 213.976 296.727C211.068 296.734 208.16 296.742 205.252 296.75C192.419 296.787 179.587 296.819 166.754 296.834C163.624 296.838 160.494 296.842 157.364 296.846C156.586 296.847 155.808 296.848 155.006 296.849C142.379 296.865 129.753 296.916 117.126 296.981C104.142 297.047 91.1595 297.083 78.1762 297.09C70.8939 297.094 63.6121 297.111 56.3299 297.162C49.4882 297.21 42.6476 297.218 35.8058 297.197C33.2947 297.196 30.7836 297.209 28.2727 297.236C24.8458 297.271 21.4224 297.257 17.9955 297.231C17.0008 297.253 16.006 297.275 14.9812 297.298C10.9237 297.222 8.29564 297.076 5.04132 294.521C0.338425 289.383 0.338426 289.383 0 285.068C1.51787 281.653 3.4528 279.703 6.25 277.256C6.745 276.761 6.745 276.761 7.25 276.256C9.98888 276.16 12.7025 276.13 15.4417 276.142C16.3001 276.142 17.1586 276.142 18.043 276.142C20.8946 276.142 23.7461 276.15 26.5977 276.158C28.5692 276.16 30.5408 276.161 32.5123 276.162C37.7123 276.166 42.9122 276.176 48.1121 276.187C53.4139 276.197 58.7158 276.202 64.0176 276.207C74.4284 276.217 84.8392 276.235 95.25 276.256C95.5568 275.632 95.8636 275.008 96.1797 274.365C97.25 272.256 97.25 272.256 98.375 270.506C99.7009 267.096 99.8324 263.826 99.25 260.256C97.7525 257.599 96.4035 255.409 94.25 253.256C91.4142 253.132 88.5989 253.069 85.7617 253.045C84.0059 253.017 82.25 252.988 80.4941 252.959C77.7159 252.917 74.9378 252.881 72.1594 252.854C69.4848 252.827 66.811 252.781 64.1367 252.732C63.3074 252.729 62.4781 252.726 61.6237 252.722C57.2529 252.629 54.4761 252.527 51.25 249.256C50.6519 248.678 50.0537 248.101 49.4375 247.506C47.642 244.104 48.2739 241.9 49.25 238.256C53.2405 233.027 57.3686 233.131 63.613 233.122Z" fill="#2B2B2B"/>
<path d="M7.25 276.256C8.24 276.916 9.23 277.576 10.25 278.256C9.09827 280.724 8.20216 282.304 6.25 284.256C6.745 284.709 7.24 285.163 7.75 285.631C9.25 287.256 9.25 287.256 9.25 289.256C8.26 289.751 8.26 289.751 7.25 290.256C7.59787 292.231 7.59787 292.231 8.25 294.256C8.91 294.586 9.57 294.916 10.25 295.256C9.26 295.586 8.27 295.916 7.25 296.256C0.345364 289.472 0.345364 289.472 0 285.068C1.51787 281.653 3.4528 279.703 6.25 277.256C6.58 276.926 6.91 276.596 7.25 276.256Z" fill="#2B2B2B"/>
<path d="M214.25 248.256C215.24 248.586 216.23 248.916 217.25 249.256C216.247 250.751 216.247 250.751 214.25 252.256C211.512 252.447 209.025 252.466 206.301 252.33C205.528 252.303 204.756 252.277 203.96 252.25C201.493 252.162 199.028 252.053 196.562 251.943C194.89 251.88 193.218 251.818 191.545 251.758C187.446 251.606 183.348 251.436 179.25 251.256C179.25 250.926 179.25 250.596 179.25 250.256C180.239 250.231 181.228 250.206 182.248 250.18C185.912 250.086 189.575 249.985 193.239 249.883C194.826 249.84 196.413 249.798 198 249.758C200.279 249.701 202.557 249.637 204.836 249.572C205.547 249.555 206.259 249.539 206.992 249.521C210.747 249.458 210.747 249.458 214.25 248.256Z" fill="#2B2B2B"/>
<path d="M1.25 286.256C2.24 286.751 2.24 286.751 3.25 287.256C3.25 287.916 3.25 288.576 3.25 289.256C4.57 288.266 5.89 287.276 7.25 286.256C7.91 286.586 8.57 286.916 9.25 287.256C9.25 287.916 9.25 288.576 9.25 289.256C8.26 289.751 8.26 289.751 7.25 290.256C7.59787 292.231 7.59787 292.231 8.25 294.256C8.91 294.586 9.57 294.916 10.25 295.256C9.26 295.586 8.27 295.916 7.25 296.256C6.23808 295.352 5.24081 294.432 4.25 293.506C3.41469 292.74 3.41469 292.74 2.5625 291.959C1.25 290.256 1.25 290.256 1.25 286.256Z" fill="#2B2B2B"/>
<path d="M219.25 238.256C219.91 238.256 220.57 238.256 221.25 238.256C222.817 244.281 222.817 244.281 221.203 247.056C219.958 248.521 218.609 249.896 217.25 251.256C216.26 250.926 215.27 250.596 214.25 250.256C215.625 248.256 215.625 248.256 217.25 246.256C217.91 246.256 218.57 246.256 219.25 246.256C219.25 243.616 219.25 240.976 219.25 238.256Z" fill="#2B2B2B"/>
<path d="M279.25 277.256C283.125 279.006 283.125 279.006 284.25 281.256C284.29 283.255 284.293 285.256 284.25 287.256C283.92 285.936 283.59 284.616 283.25 283.256C281.6 282.926 279.95 282.596 278.25 282.256C278.58 280.606 278.91 278.956 279.25 277.256Z" fill="#2B2B2B"/>
<path d="M283.25 289.256C282.92 290.906 282.59 292.556 282.25 294.256C279.94 294.586 277.63 294.916 275.25 295.256C275.25 294.596 275.25 293.936 275.25 293.256C276.24 293.256 277.23 293.256 278.25 293.256C278.58 292.266 278.91 291.276 279.25 290.256C281.25 289.256 281.25 289.256 283.25 289.256Z" fill="#2B2B2B"/>
<path d="M1.25 283.256C2.24 283.586 3.23 283.916 4.25 284.256C4.25 284.916 4.25 285.576 4.25 286.256C4.91 286.256 5.57 286.256 6.25 286.256C5.92 287.246 5.59 288.236 5.25 289.256C4.59 289.256 3.93 289.256 3.25 289.256C2.92 288.596 2.59 287.936 2.25 287.256C1.26 287.751 1.26 287.751 0.25 288.256C0.58 286.606 0.91 284.956 1.25 283.256Z" fill="#2B2B2B"/>
<path d="M51.25 246.256C52.9 246.586 54.55 246.916 56.25 247.256C55.59 248.576 54.93 249.896 54.25 251.256C53.26 250.596 52.27 249.936 51.25 249.256C51.25 248.266 51.25 247.276 51.25 246.256Z" fill="#2B2B2B"/>
<path d="M1516.74 346.266C1518.51 346.261 1518.51 346.261 1520.31 346.256C1521.61 346.258 1522.91 346.259 1524.24 346.261C1525.63 346.259 1527.02 346.257 1528.41 346.254C1532.23 346.248 1536.06 346.248 1539.88 346.249C1544 346.25 1548.13 346.244 1552.25 346.239C1560.33 346.231 1568.4 346.228 1576.48 346.228C1583.04 346.227 1589.61 346.225 1596.17 346.222C1614.77 346.213 1633.37 346.209 1651.97 346.209C1652.97 346.209 1653.98 346.209 1655.01 346.209C1656.51 346.21 1656.51 346.21 1658.05 346.21C1674.34 346.21 1690.62 346.2 1706.9 346.186C1723.61 346.172 1740.32 346.165 1757.03 346.166C1766.41 346.166 1775.8 346.163 1785.18 346.153C1793.17 346.144 1801.16 346.141 1809.15 346.148C1813.23 346.152 1817.31 346.152 1821.38 346.143C1825.11 346.135 1828.85 346.136 1832.58 346.145C1834.57 346.147 1836.56 346.14 1838.55 346.132C1839.73 346.137 1840.92 346.141 1842.13 346.146C1843.15 346.146 1844.17 346.145 1845.22 346.145C1849.47 346.527 1852.18 347.638 1855.31 350.52C1857.48 354.215 1858.04 357.275 1857 361.395C1855.12 364.545 1852.95 367.71 1849.38 368.964C1846 369.576 1842.63 369.591 1839.2 369.641C1837.65 369.674 1836.1 369.707 1834.55 369.74C1832.12 369.788 1829.69 369.832 1827.26 369.872C1824.91 369.912 1822.55 369.963 1820.2 370.016C1819.48 370.024 1818.76 370.033 1818.03 370.041C1813.39 370.154 1809.4 370.97 1805 372.395C1804.21 372.598 1803.42 372.802 1802.61 373.012C1800.58 374.453 1800.58 374.453 1800.39 378.09C1800.32 379.566 1800.28 381.043 1800.25 382.52C1800.21 383.651 1800.21 383.651 1800.16 384.805C1800.09 386.668 1800.04 388.531 1800 390.395C1801.45 390.859 1801.45 390.859 1802.94 391.332C1806 392.395 1806 392.395 1807 393.395C1808.74 393.499 1810.49 393.533 1812.24 393.54C1813.37 393.546 1814.51 393.553 1815.68 393.56C1816.93 393.563 1818.19 393.566 1819.49 393.568C1821.51 393.579 1823.52 393.589 1825.54 393.599C1827.72 393.609 1829.9 393.617 1832.08 393.625C1836.62 393.64 1841.16 393.664 1845.69 393.689C1858.6 393.761 1871.51 393.82 1884.42 393.872C1891.55 393.9 1898.67 393.935 1905.79 393.978C1910.3 394.005 1914.81 394.023 1919.32 394.034C1922.13 394.043 1924.94 394.061 1927.76 394.08C1929.67 394.091 1931.59 394.093 1933.51 394.094C1946.94 394.207 1946.94 394.207 1951.75 397.645C1954.61 401.649 1956.22 403.986 1955.44 409.02C1954 412.399 1952.86 414.141 1950 416.395C1935.82 421.123 1917.25 418.539 1902.49 418.525C1898.79 418.523 1895.1 418.527 1891.4 418.529C1884.18 418.534 1876.97 418.533 1869.75 418.53C1863.88 418.528 1858 418.527 1852.13 418.529C1851.29 418.529 1850.46 418.529 1849.59 418.529C1847.89 418.529 1846.18 418.53 1844.47 418.53C1828.52 418.533 1812.57 418.53 1796.62 418.524C1782.97 418.52 1769.31 418.521 1755.66 418.525C1739.76 418.53 1723.86 418.533 1707.96 418.53C1706.26 418.529 1704.57 418.529 1702.87 418.529C1702.03 418.528 1701.2 418.528 1700.33 418.528C1694.48 418.527 1688.62 418.529 1682.76 418.531C1675.61 418.534 1668.47 418.533 1661.32 418.528C1657.68 418.525 1654.04 418.524 1650.4 418.527C1625.41 418.548 1625.41 418.548 1615.02 418.137C1613.78 418.091 1612.54 418.046 1611.26 418C1606.36 417.092 1603.14 414.881 1600.12 410.957C1598.8 407.947 1598.31 406.63 1599 403.395C1601.96 398.846 1604.76 396.03 1610 394.395C1612.98 394.105 1615.94 394.114 1618.93 394.124C1619.82 394.118 1620.71 394.113 1621.63 394.108C1623.56 394.097 1625.49 394.092 1627.41 394.09C1630.46 394.086 1633.52 394.069 1636.57 394.049C1645.24 393.994 1653.92 393.963 1662.59 393.938C1667.9 393.923 1673.21 393.892 1678.52 393.854C1680.54 393.842 1682.56 393.836 1684.59 393.836C1687.41 393.836 1690.24 393.818 1693.07 393.795C1693.9 393.8 1694.74 393.805 1695.6 393.809C1700.21 393.752 1703.26 393.395 1707 390.395C1709.88 386.019 1710.5 382.596 1710 377.395C1709.01 376.405 1709.01 376.405 1708 375.395C1708 374.405 1708 373.415 1708 372.395C1702.93 370.736 1698.41 370.106 1693.07 370.136C1691.91 370.131 1691.92 370.131 1690.74 370.125C1688.18 370.115 1685.62 370.119 1683.06 370.124C1681.22 370.119 1679.37 370.114 1677.53 370.108C1673.57 370.096 1669.62 370.091 1665.66 370.09C1659.4 370.088 1653.13 370.07 1646.87 370.049C1631.32 370 1615.77 369.969 1600.22 369.948C1588.13 369.931 1576.04 369.908 1563.95 369.865C1557.73 369.843 1551.51 369.835 1545.28 369.837C1541.41 369.835 1537.54 369.821 1533.67 369.804C1531.87 369.798 1530.08 369.798 1528.29 369.803C1525.84 369.809 1523.38 369.797 1520.93 369.78C1520.23 369.786 1519.52 369.792 1518.79 369.799C1512.72 369.724 1507.99 368.381 1503.62 364.02C1501.93 361.282 1501.16 359.602 1501 356.395C1502.07 352.405 1503.82 350.012 1507 347.395C1510.25 346.292 1513.32 346.268 1516.74 346.266Z" fill="#2B2B2B"/>
<path d="M1934 394.395C1943.41 394.21 1943.41 394.21 1948 395.395C1947.67 396.385 1947.34 397.375 1947 398.395C1938.48 399.167 1930.06 399.519 1921.51 399.416C1920.34 399.407 1919.16 399.397 1917.96 399.387C1914.13 399.355 1910.31 399.314 1906.48 399.274C1903.81 399.249 1901.14 399.225 1898.47 399.202C1892.18 399.146 1885.9 399.085 1879.62 399.021C1872.46 398.949 1865.3 398.883 1858.14 398.818C1843.42 398.684 1828.71 398.542 1814 398.395C1814 398.065 1814 397.735 1814 397.395C1873.9 396.9 1873.9 396.9 1935 396.395C1934.5 395.405 1934.5 395.405 1934 394.395Z" fill="#2B2B2B"/>
<path d="M1605 396.395C1607.31 397.055 1609.62 397.715 1612 398.395C1609 400.395 1609 400.395 1606 400.395C1605.64 402.185 1605.28 403.977 1604.94 405.77C1604.74 406.767 1604.54 407.765 1604.34 408.793C1603.76 411.373 1603.76 411.373 1605 413.395C1604.01 413.395 1603.02 413.395 1602 413.395C1600.15 410.992 1599.14 408.972 1598.44 406.02C1599.32 401.898 1602.12 399.365 1605 396.395ZM1604 410.395C1606 411.395 1606 411.395 1606 411.395L1604 410.395Z" fill="#2B2B2B"/>
<path d="M1950 401.395C1951.88 401.582 1951.88 401.582 1954 402.395C1955.44 404.582 1955.44 404.582 1956 407.395C1954.52 411.365 1953.55 413.025 1950 415.395C1947.96 415.809 1947.96 415.809 1945.81 416.02C1944.55 416.143 1943.3 416.267 1942 416.395C1942.33 415.075 1942.66 413.755 1943 412.395C1943 413.055 1943 413.715 1943 414.395C1945.64 413.735 1948.28 413.075 1951 412.395C1949.68 412.395 1948.36 412.395 1947 412.395C1946.01 412.065 1945.02 411.735 1944 411.395C1946.31 410.735 1948.62 410.075 1951 409.395C1950.67 406.755 1950.34 404.115 1950 401.395Z" fill="#2B2B2B"/>
<path d="M1851 361.395C1852.32 361.395 1853.64 361.395 1855 361.395C1854.44 364.63 1853.63 366.373 1851 368.395C1850.01 368.395 1849.02 368.395 1848 368.395C1848 367.405 1848 366.415 1848 365.395C1849.32 364.735 1850.64 364.075 1852 363.395C1851.67 362.735 1851.34 362.075 1851 361.395Z" fill="#2B2B2B"/>
<path d="M1326.35 233.027C1327.66 233.024 1328.98 233.021 1330.33 233.017C1333.96 233.009 1337.58 233.019 1341.21 233.032C1345.13 233.043 1349.05 233.036 1352.97 233.032C1360.64 233.026 1368.31 233.037 1375.98 233.052C1384.92 233.07 1393.86 233.071 1402.79 233.072C1418.75 233.074 1434.71 233.089 1450.67 233.113C1466.14 233.137 1481.6 233.151 1497.07 233.154C1498.02 233.155 1498.98 233.155 1499.96 233.155C1501.88 233.155 1503.79 233.156 1505.71 233.156C1506.66 233.157 1507.61 233.157 1508.58 233.157C1509.53 233.157 1510.47 233.157 1511.44 233.158C1526.21 233.161 1540.97 233.173 1555.73 233.185C1561.07 233.19 1566.41 233.193 1571.75 233.196C1580.23 233.2 1588.7 233.208 1597.18 233.223C1601.05 233.229 1604.92 233.234 1608.79 233.235C1612.99 233.236 1617.2 233.245 1621.4 233.254C1622.61 233.253 1623.82 233.252 1625.07 233.251C1646.45 233.324 1646.45 233.324 1652 237.395C1652 238.055 1652 238.715 1652 239.395C1652.66 239.395 1653.32 239.395 1654 239.395C1655.85 243.094 1655.24 247.111 1654.5 251.082C1652.19 254.642 1648.9 256.045 1645 257.395C1641.06 257.97 1637.16 258.045 1633.19 258.082C1624.04 258.269 1624.04 258.269 1614.91 258.758C1614.03 258.819 1613.15 258.88 1612.24 258.943C1609.68 259.256 1609.68 259.256 1607.31 261.895C1605.3 267.249 1605.34 271.819 1606.75 277.332C1608.28 279.857 1609.27 280.328 1612 281.395C1614.62 281.685 1614.62 281.685 1617.51 281.626C1618.64 281.627 1619.76 281.628 1620.91 281.629C1622.14 281.62 1623.36 281.611 1624.63 281.602C1626.61 281.6 1628.6 281.599 1630.59 281.597C1632.73 281.594 1634.86 281.586 1636.99 281.577C1641.45 281.56 1645.9 281.563 1650.36 281.571C1663.03 281.59 1675.7 281.597 1688.36 281.549C1695.36 281.523 1702.36 281.522 1709.36 281.548C1713.06 281.561 1716.76 281.561 1720.46 281.53C1724.59 281.496 1728.72 281.516 1732.85 281.54C1734.07 281.521 1735.29 281.502 1736.55 281.482C1743.58 281.576 1747.52 282.545 1752.59 287.545C1754.88 290.545 1755.27 292.666 1755 296.395C1752.76 300.885 1750.45 303.177 1746 305.395C1743.26 305.768 1743.26 305.768 1740.23 305.766C1739.06 305.773 1737.9 305.78 1736.71 305.786C1735.44 305.778 1734.17 305.77 1732.86 305.762C1731.49 305.764 1730.12 305.767 1728.75 305.772C1725 305.781 1721.24 305.771 1717.48 305.757C1713.43 305.747 1709.38 305.753 1705.33 305.757C1697.39 305.763 1689.45 305.753 1681.51 305.737C1672.27 305.719 1663.02 305.718 1653.77 305.717C1637.27 305.716 1620.77 305.7 1604.27 305.676C1588.26 305.653 1572.26 305.638 1556.25 305.635C1554.77 305.634 1554.77 305.634 1553.26 305.634C1551.28 305.634 1549.29 305.633 1547.31 305.633C1546.33 305.633 1545.35 305.632 1544.34 305.632C1542.88 305.632 1542.88 305.632 1541.38 305.631C1526.12 305.628 1510.87 305.616 1495.61 305.604C1490.08 305.6 1484.56 305.596 1479.03 305.593C1470.26 305.589 1461.49 305.581 1452.72 305.567C1448.71 305.56 1444.7 305.555 1440.69 305.554C1437.02 305.553 1433.35 305.548 1429.68 305.539C1427.73 305.535 1425.78 305.536 1423.83 305.538C1406.34 305.48 1406.34 305.48 1402 301.957C1398.85 297.926 1398.48 295.541 1399 290.395C1401.38 287.582 1401.38 287.582 1404 285.395C1404.99 284.405 1404.99 284.405 1406 283.395C1410.46 282.082 1415.03 282.236 1419.64 282.221C1420.5 282.214 1421.36 282.208 1422.24 282.201C1424.1 282.187 1425.97 282.175 1427.83 282.165C1430.79 282.148 1433.74 282.125 1436.7 282.1C1445.1 282.029 1453.51 281.969 1461.92 281.918C1467.07 281.886 1472.21 281.844 1477.36 281.798C1479.31 281.782 1481.26 281.769 1483.22 281.761C1493.32 281.715 1503.09 281.61 1513 279.395C1515.26 270.068 1515.26 270.068 1512 261.395C1510.92 259.611 1510.92 259.611 1509 258.395C1506.37 258.099 1503.97 257.987 1501.34 258.009C1500.55 258.004 1499.77 257.999 1498.96 257.993C1496.31 257.979 1493.66 257.987 1491.01 257.994C1489.11 257.988 1487.22 257.981 1485.32 257.973C1481.24 257.958 1477.15 257.952 1473.06 257.953C1466.59 257.955 1460.12 257.936 1453.66 257.913C1441.08 257.872 1428.51 257.854 1415.94 257.837C1399.97 257.815 1383.99 257.781 1368.01 257.73C1361.59 257.71 1355.16 257.7 1348.74 257.699C1344.73 257.696 1340.73 257.685 1336.72 257.672C1334.87 257.668 1333.01 257.667 1331.16 257.67C1308.17 257.701 1308.17 257.701 1303.34 254.186C1300.01 250.678 1299 247.137 1299 242.395C1300.38 240.645 1300.38 240.645 1302 239.395C1302.33 238.405 1302.66 237.415 1303 236.395C1310.2 232.68 1318.46 232.975 1326.35 233.027Z" fill="#2B2B2B"/>
<path d="M1509 280.395C1510 283.395 1510 283.395 1510 287.395C1507.12 287.52 1507.12 287.52 1504 287.395C1503.01 286.405 1503.01 286.405 1502 285.395C1498.99 285.206 1496.07 285.143 1493.05 285.168C1492.12 285.167 1491.2 285.167 1490.24 285.167C1487.17 285.168 1484.1 285.184 1481.02 285.199C1478.9 285.203 1476.77 285.206 1474.64 285.208C1469.04 285.216 1463.43 285.235 1457.82 285.257C1452.11 285.278 1446.39 285.287 1440.67 285.297C1429.45 285.318 1418.22 285.353 1407 285.395C1410.1 282.273 1412.83 282.032 1417.12 281.969C1417.94 281.972 1418.75 281.975 1419.59 281.978C1420.89 281.965 1420.89 281.965 1422.21 281.952C1425.07 281.927 1427.93 281.923 1430.8 281.918C1432.79 281.904 1434.78 281.888 1436.78 281.871C1442.03 281.829 1447.28 281.804 1452.53 281.783C1460.92 281.748 1469.31 281.686 1477.7 281.625C1480.62 281.606 1483.55 281.594 1486.47 281.583C1488.28 281.573 1490.09 281.563 1491.89 281.552C1492.7 281.551 1493.51 281.55 1494.34 281.549C1499.31 281.514 1504.08 281.097 1509 280.395Z" fill="#2B2B2B"/>
<path d="M1750.05 284.996C1754.93 290.419 1754.93 290.419 1755.25 295.02C1753.7 299.2 1752.23 301.317 1749 304.395C1747.68 304.395 1746.36 304.395 1745 304.395C1745 303.405 1745 302.415 1745 301.395C1746.65 300.735 1748.3 300.075 1750 299.395C1750 297.745 1750 296.095 1750 294.395C1750.66 294.395 1751.32 294.395 1752 294.395C1751.67 292.745 1751.34 291.095 1751 289.395C1748.03 289.395 1745.06 289.395 1742 289.395C1742 288.075 1742 286.755 1742 285.395C1702.4 285.065 1662.8 284.735 1622 284.395C1622 284.065 1622 283.735 1622 283.395C1637.69 283.241 1653.38 283.093 1669.07 282.952C1676.36 282.886 1683.64 282.819 1690.93 282.746C1697.28 282.684 1703.63 282.624 1709.98 282.57C1713.34 282.54 1716.7 282.509 1720.06 282.474C1723.82 282.436 1727.57 282.403 1731.33 282.373C1733 282.353 1733 282.353 1734.7 282.334C1735.72 282.327 1736.75 282.32 1737.8 282.312C1739.14 282.3 1739.14 282.3 1740.49 282.287C1744.21 282.447 1747.08 282.677 1750.05 284.996Z" fill="#2B2B2B"/>
<path d="M1399 290.395C1399.33 291.055 1399.66 291.715 1400 292.395C1400.66 292.395 1401.32 292.395 1402 292.395C1402 293.715 1402 295.035 1402 296.395C1402.64 296.642 1403.28 296.89 1403.94 297.145C1406 298.395 1406 298.395 1406.69 300.395C1406.79 301.055 1406.89 301.715 1407 302.395C1407.33 303.055 1407.66 303.715 1408 304.395C1405.75 304.27 1405.75 304.27 1403 303.395C1400 299.993 1399.04 298.073 1398.75 293.52C1398.83 292.488 1398.91 291.457 1399 290.395Z" fill="#2B2B2B"/>
<path d="M1509 280.395C1510 283.395 1510 283.395 1510 287.395C1507.19 287.707 1507.19 287.707 1504 287.395C1501 283.495 1501 283.495 1501 281.395C1503.64 281.065 1506.28 280.735 1509 280.395Z" fill="#2B2B2B"/>
<path d="M1308 234.395C1308.66 234.725 1309.32 235.055 1310 235.395C1308.51 236.88 1308.51 236.88 1307 238.395C1307.66 239.055 1308.32 239.715 1309 240.395C1307.02 240.725 1305.04 241.055 1303 241.395C1302.67 240.075 1302.34 238.755 1302 237.395C1303.96 236.327 1305.97 235.329 1308 234.395Z" fill="#2B2B2B"/>
<path d="M1606 262.395C1605.67 265.365 1605.34 268.335 1605 271.395C1604.34 270.075 1603.68 268.755 1603 267.395C1602.67 270.035 1602.34 272.675 1602 275.395C1601.67 275.395 1601.34 275.395 1601 275.395C1600.92 273.791 1600.86 272.187 1600.81 270.582C1600.78 269.689 1600.74 268.795 1600.71 267.875C1601 265.395 1601 265.395 1602.39 263.57C1604 262.395 1604 262.395 1606 262.395Z" fill="#2B2B2B"/>
<path d="M1512 257.395C1513.65 257.395 1515.3 257.395 1517 257.395C1517.62 259.27 1517.62 259.27 1518 261.395C1517.34 262.055 1516.68 262.715 1516 263.395C1514.68 262.735 1513.36 262.075 1512 261.395C1512 260.075 1512 258.755 1512 257.395Z" fill="#2B2B2B"/>
<path d="M1647 236.395C1648.67 236.681 1650.34 237.012 1652 237.395C1652.33 238.385 1652.66 239.375 1653 240.395C1651.02 240.725 1649.04 241.055 1647 241.395C1646.44 239.457 1646.44 239.457 1646 237.395C1646.33 237.065 1646.66 236.735 1647 236.395Z" fill="#2B2B2B"/>
<circle cx="523" cy="100" r="100" fill="#BB4A34"/>
</svg>
