<svg width="1956" height="512" viewBox="0 0 1956 512" fill="none" xmlns="http://www.w3.org/2000/svg">
<path d="M987.086 56.507H934.913V240.111H987.086V56.507Z" fill="#1D1D1D"/>
<path d="M1164.11 51.203H757.89V111.228H1164.11V51.203Z" fill="#1D1D1D"/>
<path d="M775.083 248.927H840.48L839.609 259.533H773.867L775.083 248.927Z" fill="#1D1D1D"/>
<path d="M1148.12 259.533H1082.38L1081.52 248.927H1146.92L1148.12 259.533Z" fill="#1D1D1D"/>
<path d="M1191.05 58.268H730.952L705 0H1217L1191.05 58.268Z" fill="#1D1D1D"/>
<path d="M855.349 110.36L854.484 120.963L844.01 248.927V248.938L843.145 259.533L842.848 263.062L832.083 394.871H758.482L773.47 263.062L773.874 259.533L775.089 248.938V248.927L789.643 120.963L790.843 110.36L794.164 81.223H854.201L855.349 110.36Z" fill="#1D1D1D"/>
<path d="M1163.51 394.871H1089.91L1079.14 263.062L1078.87 259.533L1077.99 248.938V248.927L1067.53 120.963L1066.66 110.36L1067.8 81.223H1127.84L1131.15 110.36L1132.36 120.963L1146.92 248.927V248.938L1148.52 263.062L1163.51 394.871Z" fill="#1D1D1D"/>
<path d="M752.379 448.444H827.702L832.083 394.871H758.467L752.379 448.444Z" fill="#1D1D1D"/>
<path d="M1089.92 394.871L1094.3 448.444H1169.62L1163.52 394.871H1089.92Z" fill="#1D1D1D"/>
<path d="M790.837 110.36H855.341L854.47 120.963H789.635L790.837 110.36Z" fill="#1D1D1D"/>
<path d="M987.086 110.36H934.913V120.962H987.086V110.36Z" fill="#1D1D1D"/>
<path d="M1132.35 120.963H1067.53L1066.65 110.36H1131.16L1132.35 120.963Z" fill="#1D1D1D"/>
<path d="M775.089 248.938H844.01L843.145 259.533L842.848 263.062H773.47L775.089 248.938Z" fill="#1D1D1D"/>
<path d="M1148.52 263.062H1079.14L1078.87 259.533L1077.99 248.938H1146.92L1148.52 263.062Z" fill="#1D1D1D"/>
<path d="M1206.99 192.445H715.004V252.47H1206.99V192.445Z" fill="#1D1D1D"/>
<path d="M375.149 235.997C376.855 235.994 378.561 235.991 380.267 235.986C384.878 235.977 389.489 235.981 394.101 235.987C398.934 235.992 403.768 235.987 408.602 235.984C416.715 235.981 424.827 235.985 432.94 235.995C442.315 236.006 451.689 236.002 461.063 235.991C469.122 235.982 477.181 235.981 485.24 235.986C490.049 235.989 494.858 235.99 499.667 235.983C504.185 235.977 508.704 235.981 513.222 235.993C514.879 235.995 516.536 235.995 518.193 235.99C520.456 235.985 522.72 235.992 524.983 236.002C526.249 236.002 527.515 236.003 528.819 236.004C534.085 236.39 537.276 237.364 541.187 240.943C543.25 244.256 543.25 244.256 543.437 247.756C541.997 252.002 540.213 255.015 536.25 257.256C527.687 258.908 518.767 258.562 510.076 258.685C508.859 258.716 507.641 258.747 506.387 258.779C504.727 258.809 504.727 258.809 503.034 258.839C500.255 259.033 500.255 259.033 498.429 260.598C495.818 264.269 495.939 267.906 496.25 272.256C497.281 274.066 497.281 274.066 499.25 275.256C502.348 275.843 502.348 275.843 505.997 275.932C506.696 275.965 507.394 275.998 508.113 276.032C517.11 276.411 526.12 276.408 535.123 276.424C538.365 276.432 541.606 276.447 544.847 276.466C554.05 276.518 563.252 276.566 572.454 276.582C578.114 276.592 583.773 276.621 589.433 276.663C591.58 276.675 593.728 276.68 595.876 276.678C598.867 276.676 601.857 276.698 604.848 276.726C606.172 276.716 606.172 276.716 607.523 276.706C611.594 276.768 613.71 276.914 617.224 279.136C620.067 282.11 621.951 284.593 622.687 288.693C622.072 292.299 620.518 294.421 618.25 297.256C609.295 302.752 595.219 300.382 585.022 300.35C583.198 300.348 581.373 300.347 579.549 300.346C575.641 300.344 571.732 300.339 567.824 300.333C561.642 300.324 555.461 300.33 549.279 300.339C547.71 300.341 547.71 300.341 546.11 300.343C543.973 300.346 541.837 300.349 539.7 300.352C525.322 300.374 510.944 300.387 496.566 300.355C486.846 300.334 477.127 300.337 467.407 300.369C462.269 300.385 457.132 300.388 451.995 300.361C447.169 300.336 442.344 300.343 437.518 300.376C435.748 300.382 433.979 300.376 432.209 300.357C423.173 299.943 423.173 299.943 414.873 302.745C411.485 306.5 410.25 310.14 410.25 315.256C411.273 319.255 412.888 321.842 416.25 324.256C423.963 325.473 431.687 325.439 439.48 325.502C440.843 325.517 442.206 325.534 443.569 325.55C449.313 325.621 455.058 325.681 460.802 325.732C464.334 325.764 467.865 325.806 471.396 325.853C473.38 325.876 475.364 325.889 477.348 325.902C478.56 325.919 479.772 325.936 481.02 325.953C482.081 325.963 483.142 325.973 484.235 325.984C488.529 326.371 492.027 327.396 495.562 329.881C497.895 333.163 498.447 336.31 498.25 340.256C496.383 345.562 496.383 345.562 493.412 347.381C485.711 350.496 475.974 349.398 467.83 349.383C466.494 349.384 465.158 349.385 463.821 349.387C460.173 349.392 456.525 349.39 452.877 349.386C448.932 349.384 444.988 349.388 441.044 349.39C433.324 349.395 425.604 349.394 417.885 349.391C411.604 349.389 405.324 349.388 399.043 349.39C398.147 349.39 397.252 349.39 396.329 349.39C394.51 349.39 392.691 349.391 390.871 349.391C373.819 349.394 356.767 349.391 339.715 349.385C325.115 349.381 310.514 349.381 295.914 349.386C278.933 349.391 261.953 349.394 244.973 349.39C243.158 349.39 241.343 349.39 239.528 349.39C238.635 349.389 237.742 349.389 236.822 349.389C230.56 349.388 224.298 349.39 218.036 349.392C210.388 349.395 202.74 349.394 195.093 349.389C191.198 349.386 187.303 349.385 183.408 349.388C156.574 349.409 156.574 349.409 145.58 348.873C144.884 348.842 144.188 348.812 143.472 348.781C139.714 348.554 136.597 348.016 133.25 346.256C130.615 342.258 129.377 339.007 130.25 334.256C132.394 330.783 134.48 327.699 138.564 326.677C141.099 326.279 143.459 326.121 146.021 326.104C146.955 326.096 147.889 326.088 148.851 326.079C149.865 326.075 150.88 326.071 151.925 326.066C153.006 326.058 154.087 326.05 155.2 326.041C158.798 326.014 162.395 325.994 165.992 325.974C168.529 325.957 171.066 325.939 173.603 325.92C178.296 325.887 182.988 325.854 187.681 325.824C196.719 325.767 205.757 325.698 214.796 325.624C216.18 325.613 217.564 325.601 218.948 325.59C221.015 325.573 223.082 325.557 225.149 325.54C259.722 325.26 259.722 325.26 276.735 325.183C282.873 325.155 289.01 325.113 295.148 325.054C298.409 325.024 301.668 325.005 304.928 325.003C308.397 325 311.864 324.968 315.332 324.928C316.792 324.938 316.792 324.938 318.281 324.949C323.597 324.906 323.597 324.906 327.807 321.839C330.213 317.531 330.781 314.186 330.25 309.256C328.586 305.512 326.687 303.434 323.25 301.256C320.965 300.816 320.965 300.816 318.501 300.887C317.094 300.876 317.094 300.876 315.658 300.866C314.147 300.875 314.147 300.875 312.605 300.885C310.463 300.867 308.32 300.85 306.178 300.832C302.807 300.822 299.437 300.818 296.066 300.82C292.808 300.816 289.551 300.789 286.293 300.76C285.292 300.768 284.29 300.776 283.259 300.784C277.049 300.719 273.325 299.906 268.25 296.256C265.836 293.108 265.784 290.137 266.25 286.256C268.589 281.838 270.711 279.325 275.25 277.256C278.481 276.814 281.686 276.828 284.943 276.839C285.914 276.831 286.886 276.822 287.887 276.813C291.099 276.788 294.311 276.784 297.523 276.779C299.767 276.765 302.011 276.749 304.255 276.732C310.171 276.69 316.086 276.665 322.002 276.644C331.435 276.609 340.867 276.547 350.299 276.486C353.575 276.467 356.851 276.455 360.127 276.444C377.918 277.101 377.918 277.101 395.25 274.256C395.331 272.506 395.389 270.756 395.437 269.006C395.49 267.544 395.49 267.544 395.543 266.053C395.189 262.672 394.872 261.447 392.25 259.256C389.302 258.781 386.71 258.559 383.75 258.506C382.915 258.474 382.08 258.442 381.22 258.409C376.814 258.262 372.423 258.252 368.016 258.345C367.174 258.36 366.333 258.374 365.467 258.389C363.863 258.424 362.26 258.479 360.658 258.555C355.018 258.696 351.905 257.471 347.25 254.256C344.602 250.917 344.815 247.385 345.25 243.256C346.687 240.443 346.687 240.443 349.25 238.256C357.732 235.618 366.362 235.973 375.149 235.997Z" fill="#1D1D1D"/>
<path d="M275.25 298.256C292.08 298.256 308.91 298.256 326.25 298.256C326.91 299.576 327.57 300.896 328.25 302.256C327.166 302.014 327.166 302.014 326.061 301.768C323.407 301.284 320.969 301.1 318.276 301.05C317.316 301.03 316.355 301.01 315.365 300.99C313.829 300.965 313.829 300.965 312.262 300.939C311.203 300.918 310.145 300.898 309.055 300.876C305.682 300.811 302.31 300.752 298.938 300.693C296.648 300.65 294.358 300.606 292.068 300.562C286.462 300.455 280.856 300.354 275.25 300.256C275.25 299.596 275.25 298.936 275.25 298.256Z" fill="#1D1D1D"/>
<path d="M495.25 274.256C495.76 274.409 496.271 274.562 496.797 274.72C500.025 275.425 503.204 275.604 506.5 275.818C507.763 275.902 509.027 275.986 510.328 276.072C511.292 276.133 512.257 276.193 513.25 276.256C513.25 276.586 513.25 276.916 513.25 277.256C510.438 277.724 510.438 277.724 507.625 278.193C506.059 278.454 506.059 278.454 504.461 278.72C503.401 278.897 502.342 279.074 501.25 279.256C499.692 279.536 499.692 279.536 498.102 279.822C495.25 280.256 495.25 280.256 491.25 280.256C491.25 278.606 491.25 276.956 491.25 275.256C491.91 275.256 492.57 275.256 493.25 275.256C493.25 276.246 493.25 277.236 493.25 278.256C493.91 278.256 494.57 278.256 495.25 278.256C495.25 276.936 495.25 275.616 495.25 274.256Z" fill="#1D1D1D"/>
<path d="M501.75 255.881C505.274 255.939 506.176 256.207 509.25 258.256C508.635 258.293 508.02 258.33 507.387 258.369C506.174 258.468 506.174 258.468 504.938 258.568C504.137 258.626 503.336 258.684 502.512 258.744C498.626 259.623 497.399 262.032 495.25 265.256C494.26 264.926 493.27 264.596 492.25 264.256C492.25 262.276 492.25 260.296 492.25 258.256C492.91 258.916 493.57 259.576 494.25 260.256C494.714 259.266 494.714 259.266 495.188 258.256C497.651 255.867 498.419 255.935 501.75 255.881Z" fill="#1D1D1D"/>
<path d="M495.25 331.256C495.91 331.586 496.57 331.916 497.25 332.256C498.112 335.487 498.556 337.48 497.312 340.631C496.962 341.167 496.611 341.703 496.25 342.256C495.59 342.256 494.93 342.256 494.25 342.256C494.25 341.266 494.25 340.276 494.25 339.256C493.26 340.246 492.27 341.236 491.25 342.256C493.125 337.506 493.125 337.506 494.25 335.256C493.59 335.256 492.93 335.256 492.25 335.256C492.25 334.596 492.25 333.936 492.25 333.256C493.24 332.596 494.23 331.936 495.25 331.256Z" fill="#1D1D1D"/>
<path d="M540.25 245.256C541.24 245.586 542.23 245.916 543.25 246.256C542.5 251.006 542.5 251.006 540.25 253.256C538.262 253.653 536.261 253.993 534.25 254.256C535.25 252.256 535.25 252.256 536.25 251.256C535.26 251.256 534.27 251.256 533.25 251.256C533.25 250.596 533.25 249.936 533.25 249.256C535.23 248.926 537.21 248.596 539.25 248.256C539.58 247.266 539.91 246.276 540.25 245.256Z" fill="#1D1D1D"/>
<path d="M394.25 275.256C394.58 276.576 394.91 277.896 395.25 279.256C392.61 279.586 389.97 279.916 387.25 280.256C387.58 279.596 387.91 278.936 388.25 278.256C385.61 277.926 382.97 277.596 380.25 277.256C380.25 276.926 380.25 276.596 380.25 276.256C382.208 276.088 384.167 275.922 386.125 275.756C387.761 275.616 387.761 275.616 389.43 275.474C391.033 275.35 392.642 275.256 394.25 275.256Z" fill="#1D1D1D"/>
<path d="M329.25 319.256C329.58 319.256 329.91 319.256 330.25 319.256C330.25 320.906 330.25 322.556 330.25 324.256C329.59 324.256 328.93 324.256 328.25 324.256C328.25 324.916 328.25 325.576 328.25 326.256C328.91 326.586 329.57 326.916 330.25 327.256C327.94 327.586 325.63 327.916 323.25 328.256C325.085 325.109 326.946 322.083 329.25 319.256Z" fill="#1D1D1D"/>
<path d="M266.25 291.256C268.625 291.068 268.625 291.068 271.25 291.256C273.25 294.256 273.25 294.256 272.875 296.443C272.669 297.041 272.463 297.639 272.25 298.256C269.257 297.158 268.404 296.579 267 293.631C266.752 292.847 266.505 292.063 266.25 291.256Z" fill="#1D1D1D"/>
<path d="M404.25 312.256C405.24 312.256 406.23 312.256 407.25 312.256C408.375 318.006 408.375 318.006 407.25 320.256C405.93 320.256 404.61 320.256 403.25 320.256C403.58 317.616 403.91 314.976 404.25 312.256Z" fill="#1D1D1D"/>
<path d="M414.25 299.256C414.91 299.586 415.57 299.916 416.25 300.256C414.88 303.417 414.261 304.248 411.25 306.256C410.59 305.926 409.93 305.596 409.25 305.256C408.92 305.916 408.59 306.576 408.25 307.256C408.25 306.266 408.25 305.276 408.25 304.256C409.24 304.256 410.23 304.256 411.25 304.256C411.374 303.616 411.498 302.977 411.625 302.318C411.831 301.637 412.037 300.957 412.25 300.256C412.91 299.926 413.57 299.596 414.25 299.256Z" fill="#1D1D1D"/>
<path d="M493.25 343.256C493.91 344.246 494.57 345.236 495.25 346.256C491.616 348.582 488.479 348.418 484.25 348.256C484.58 347.596 484.91 346.936 485.25 346.256C487.572 345.551 489.906 344.883 492.25 344.256C492.58 343.926 492.91 343.596 493.25 343.256Z" fill="#1D1D1D"/>
<path d="M137.25 328.256C137.25 331.256 137.25 331.256 135.375 333.443C133.25 335.256 133.25 335.256 131.25 335.256C131.438 333.443 131.438 333.443 132.25 331.256C134.812 329.506 134.812 329.506 137.25 328.256Z" fill="#1D1D1D"/>
<path d="M63.613 163.122C64.9224 163.118 66.2319 163.113 67.581 163.109C69.0304 163.109 70.4798 163.11 71.9292 163.11C73.457 163.107 74.9848 163.104 76.5125 163.1C80.6613 163.091 84.8101 163.089 88.9589 163.088C91.5514 163.088 94.1438 163.085 96.7363 163.083C105.782 163.074 114.827 163.069 123.873 163.07C132.302 163.071 140.732 163.06 149.161 163.045C156.401 163.031 163.64 163.026 170.879 163.027C175.202 163.027 179.525 163.024 183.847 163.014C187.914 163.004 191.98 163.004 196.046 163.011C197.537 163.012 199.027 163.01 200.518 163.004C202.556 162.996 204.595 163.002 206.633 163.008C208.343 163.007 208.343 163.007 210.087 163.007C214.6 163.362 218.127 163.988 221.188 167.443C222.602 171.188 222.298 173.414 221.25 177.256C218.985 180.125 217.733 181.095 214.25 182.256C211.821 182.385 209.415 182.465 206.984 182.502C205.522 182.535 204.06 182.568 202.598 182.601C200.303 182.648 198.008 182.693 195.712 182.732C193.49 182.772 191.269 182.824 189.047 182.877C188.371 182.885 187.694 182.893 186.997 182.902C182.467 183.018 178.501 183.668 174.25 185.256C171.755 189.153 170.98 191.851 171.375 196.443C172.219 200.121 172.667 201.636 175.25 204.256C177.695 204.896 177.695 204.896 180.516 204.856C181.613 204.887 182.71 204.918 183.84 204.95C185.048 204.963 186.256 204.976 187.5 204.99C188.774 205.019 190.048 205.048 191.361 205.077C195.657 205.17 199.953 205.217 204.25 205.256C205.383 205.266 205.383 205.266 206.539 205.277C212.13 205.327 217.721 205.363 223.312 205.396C224.125 205.401 224.937 205.406 225.774 205.411C228.254 205.426 230.735 205.44 233.215 205.455C234.037 205.46 234.859 205.465 235.706 205.47C239.945 205.493 244.183 205.508 248.422 205.506C252.612 205.505 256.801 205.529 260.991 205.568C262.567 205.578 264.142 205.58 265.718 205.572C267.899 205.563 270.077 205.584 272.258 205.612C273.492 205.616 274.725 205.619 275.997 205.623C280.137 206.428 281.609 208.044 284.25 211.256C285.778 214.312 285.482 216.885 285.25 220.256C283.71 223.076 282.817 224.071 279.732 225.073C272.743 226.051 265.925 226.553 258.87 226.55C257.79 226.557 256.711 226.565 255.599 226.572C252.018 226.594 248.437 226.602 244.856 226.61C242.275 226.622 239.693 226.635 237.112 226.649C229.4 226.689 221.688 226.709 213.976 226.727C211.068 226.734 208.16 226.742 205.252 226.75C192.419 226.787 179.587 226.819 166.754 226.834C163.624 226.838 160.494 226.842 157.364 226.846C156.586 226.847 155.808 226.848 155.006 226.849C142.379 226.865 129.753 226.916 117.126 226.981C104.142 227.047 91.1595 227.083 78.1762 227.09C70.8939 227.094 63.6121 227.111 56.3299 227.162C49.4882 227.21 42.6476 227.218 35.8058 227.197C33.2947 227.196 30.7836 227.209 28.2727 227.236C24.8458 227.271 21.4224 227.257 17.9955 227.231C17.0008 227.253 16.006 227.275 14.9812 227.298C10.9237 227.222 8.29564 227.077 5.04132 224.521C0.338425 219.383 0.338426 219.383 0 215.068C1.51787 211.653 3.4528 209.703 6.25 207.256C6.745 206.761 6.745 206.761 7.25 206.256C9.98888 206.16 12.7025 206.13 15.4417 206.142C16.3001 206.142 17.1586 206.142 18.043 206.142C20.8946 206.142 23.7461 206.15 26.5977 206.158C28.5692 206.16 30.5408 206.161 32.5123 206.162C37.7123 206.166 42.9122 206.176 48.1121 206.187C53.4139 206.197 58.7158 206.202 64.0176 206.207C74.4284 206.217 84.8392 206.234 95.25 206.256C95.5568 205.632 95.8636 205.008 96.1797 204.365C97.25 202.256 97.25 202.256 98.375 200.506C99.7009 197.096 99.8324 193.826 99.25 190.256C97.7525 187.599 96.4035 185.409 94.25 183.256C91.4142 183.132 88.5989 183.069 85.7617 183.045C84.0059 183.016 82.25 182.988 80.4941 182.959C77.7159 182.917 74.9378 182.881 72.1594 182.854C69.4848 182.827 66.811 182.781 64.1367 182.732C63.3074 182.729 62.4781 182.726 61.6237 182.722C57.2529 182.629 54.4761 182.527 51.25 179.256C50.6519 178.678 50.0537 178.101 49.4375 177.506C47.642 174.103 48.2739 171.9 49.25 168.256C53.2405 163.027 57.3686 163.131 63.613 163.122Z" fill="#1D1D1D"/>
<path d="M7.25 206.256C8.24 206.916 9.23 207.576 10.25 208.256C9.09827 210.724 8.20216 212.304 6.25 214.256C6.745 214.709 7.24 215.163 7.75 215.631C9.25 217.256 9.25 217.256 9.25 219.256C8.26 219.751 8.26 219.751 7.25 220.256C7.59787 222.231 7.59787 222.231 8.25 224.256C8.91 224.586 9.57 224.916 10.25 225.256C9.26 225.586 8.27 225.916 7.25 226.256C0.345364 219.472 0.345364 219.472 0 215.068C1.51787 211.653 3.4528 209.703 6.25 207.256C6.58 206.926 6.91 206.596 7.25 206.256Z" fill="#1D1D1D"/>
<path d="M214.25 178.256C215.24 178.586 216.23 178.916 217.25 179.256C216.247 180.751 216.247 180.751 214.25 182.256C211.512 182.447 209.025 182.466 206.301 182.33C205.528 182.303 204.756 182.277 203.96 182.25C201.493 182.162 199.028 182.053 196.562 181.943C194.89 181.88 193.218 181.818 191.545 181.758C187.446 181.606 183.348 181.436 179.25 181.256C179.25 180.926 179.25 180.596 179.25 180.256C180.239 180.231 181.228 180.206 182.248 180.18C185.912 180.086 189.575 179.985 193.239 179.883C194.826 179.84 196.413 179.798 198 179.758C200.279 179.701 202.557 179.637 204.836 179.572C205.547 179.555 206.259 179.539 206.992 179.521C210.747 179.458 210.747 179.458 214.25 178.256Z" fill="#1D1D1D"/>
<path d="M1.25 216.256C2.24 216.751 2.24 216.751 3.25 217.256C3.25 217.916 3.25 218.576 3.25 219.256C4.57 218.266 5.89 217.276 7.25 216.256C7.91 216.586 8.57 216.916 9.25 217.256C9.25 217.916 9.25 218.576 9.25 219.256C8.26 219.751 8.26 219.751 7.25 220.256C7.59787 222.231 7.59787 222.231 8.25 224.256C8.91 224.586 9.57 224.916 10.25 225.256C9.26 225.586 8.27 225.916 7.25 226.256C6.23808 225.352 5.24081 224.432 4.25 223.506C3.41469 222.74 3.41469 222.74 2.5625 221.959C1.25 220.256 1.25 220.256 1.25 216.256Z" fill="#1D1D1D"/>
<path d="M219.25 168.256C219.91 168.256 220.57 168.256 221.25 168.256C222.817 174.281 222.817 174.281 221.203 177.056C219.958 178.521 218.609 179.896 217.25 181.256C216.26 180.926 215.27 180.596 214.25 180.256C215.625 178.256 215.625 178.256 217.25 176.256C217.91 176.256 218.57 176.256 219.25 176.256C219.25 173.616 219.25 170.976 219.25 168.256Z" fill="#1D1D1D"/>
<path d="M279.25 207.256C283.125 209.006 283.125 209.006 284.25 211.256C284.29 213.255 284.293 215.256 284.25 217.256C283.92 215.936 283.59 214.616 283.25 213.256C281.6 212.926 279.95 212.596 278.25 212.256C278.58 210.606 278.91 208.956 279.25 207.256Z" fill="#1D1D1D"/>
<path d="M283.25 219.256C282.92 220.906 282.59 222.556 282.25 224.256C279.94 224.586 277.63 224.916 275.25 225.256C275.25 224.596 275.25 223.936 275.25 223.256C276.24 223.256 277.23 223.256 278.25 223.256C278.58 222.266 278.91 221.276 279.25 220.256C281.25 219.256 281.25 219.256 283.25 219.256Z" fill="#1D1D1D"/>
<path d="M1.25 213.256C2.24 213.586 3.23 213.916 4.25 214.256C4.25 214.916 4.25 215.576 4.25 216.256C4.91 216.256 5.57 216.256 6.25 216.256C5.92 217.246 5.59 218.236 5.25 219.256C4.59 219.256 3.93 219.256 3.25 219.256C2.92 218.596 2.59 217.936 2.25 217.256C1.26 217.751 1.26 217.751 0.25 218.256C0.58 216.606 0.91 214.956 1.25 213.256Z" fill="#1D1D1D"/>
<path d="M51.25 176.256C52.9 176.586 54.55 176.916 56.25 177.256C55.59 178.576 54.93 179.896 54.25 181.256C53.26 180.596 52.27 179.936 51.25 179.256C51.25 178.266 51.25 177.276 51.25 176.256Z" fill="#1D1D1D"/>
<path d="M1516.74 276.266C1518.51 276.261 1518.51 276.261 1520.31 276.256C1521.61 276.258 1522.91 276.259 1524.24 276.261C1525.63 276.259 1527.02 276.257 1528.41 276.254C1532.23 276.248 1536.06 276.248 1539.88 276.249C1544 276.25 1548.13 276.244 1552.25 276.239C1560.33 276.231 1568.4 276.228 1576.48 276.228C1583.04 276.227 1589.61 276.225 1596.17 276.222C1614.77 276.213 1633.37 276.209 1651.97 276.209C1652.97 276.209 1653.98 276.209 1655.01 276.209C1656.52 276.21 1656.52 276.21 1658.05 276.21C1674.34 276.21 1690.62 276.2 1706.9 276.186C1723.61 276.172 1740.32 276.165 1757.03 276.166C1766.41 276.166 1775.8 276.163 1785.18 276.153C1793.17 276.144 1801.16 276.141 1809.15 276.148C1813.23 276.152 1817.31 276.152 1821.38 276.143C1825.11 276.135 1828.84 276.136 1832.58 276.145C1834.57 276.147 1836.56 276.14 1838.55 276.132C1839.73 276.137 1840.92 276.141 1842.13 276.146C1843.15 276.146 1844.17 276.145 1845.22 276.145C1849.47 276.527 1852.18 277.638 1855.31 280.52C1857.48 284.215 1858.04 287.275 1857 291.395C1855.12 294.545 1852.95 297.71 1849.38 298.964C1846 299.576 1842.63 299.591 1839.2 299.641C1837.65 299.674 1836.1 299.707 1834.55 299.74C1832.12 299.788 1829.69 299.832 1827.26 299.872C1824.91 299.912 1822.55 299.963 1820.2 300.016C1819.48 300.024 1818.76 300.033 1818.03 300.041C1813.39 300.154 1809.41 300.97 1805 302.395C1804.21 302.598 1803.42 302.802 1802.61 303.012C1800.58 304.453 1800.58 304.453 1800.39 308.09C1800.32 309.566 1800.28 311.043 1800.25 312.52C1800.21 313.651 1800.21 313.651 1800.16 314.805C1800.09 316.668 1800.04 318.531 1800 320.395C1801.45 320.859 1801.45 320.859 1802.94 321.332C1806 322.395 1806 322.395 1807 323.395C1808.74 323.499 1810.49 323.533 1812.24 323.54C1813.37 323.546 1814.51 323.553 1815.68 323.56C1816.94 323.563 1818.19 323.566 1819.49 323.568C1821.51 323.579 1823.53 323.589 1825.54 323.599C1827.72 323.609 1829.9 323.617 1832.08 323.625C1836.62 323.64 1841.16 323.664 1845.69 323.689C1858.6 323.761 1871.51 323.82 1884.42 323.872C1891.55 323.9 1898.67 323.935 1905.79 323.978C1910.3 324.005 1914.81 324.023 1919.32 324.034C1922.13 324.043 1924.94 324.061 1927.76 324.08C1929.67 324.091 1931.59 324.093 1933.51 324.094C1946.94 324.207 1946.94 324.207 1951.75 327.645C1954.61 331.649 1956.22 333.986 1955.44 339.02C1954 342.399 1952.86 344.141 1950 346.395C1935.81 351.123 1917.25 348.539 1902.49 348.525C1898.79 348.523 1895.1 348.527 1891.4 348.529C1884.18 348.534 1876.97 348.533 1869.75 348.53C1863.88 348.528 1858 348.527 1852.13 348.529C1851.29 348.529 1850.46 348.529 1849.59 348.529C1847.89 348.529 1846.18 348.53 1844.47 348.53C1828.52 348.533 1812.57 348.53 1796.62 348.524C1782.97 348.52 1769.31 348.521 1755.66 348.525C1739.76 348.53 1723.86 348.533 1707.96 348.53C1706.26 348.529 1704.56 348.529 1702.87 348.529C1702.03 348.528 1701.2 348.528 1700.33 348.528C1694.48 348.527 1688.62 348.529 1682.76 348.531C1675.61 348.534 1668.47 348.533 1661.32 348.528C1657.68 348.525 1654.04 348.524 1650.4 348.527C1625.41 348.548 1625.41 348.548 1615.02 348.137C1613.78 348.091 1612.54 348.046 1611.26 348C1606.36 347.092 1603.14 344.881 1600.12 340.957C1598.8 337.947 1598.31 336.63 1599 333.395C1601.96 328.846 1604.76 326.03 1610 324.395C1612.98 324.105 1615.94 324.114 1618.93 324.124C1619.82 324.118 1620.71 324.113 1621.63 324.108C1623.56 324.097 1625.49 324.092 1627.41 324.09C1630.47 324.086 1633.52 324.069 1636.57 324.049C1645.24 323.994 1653.92 323.963 1662.59 323.938C1667.9 323.923 1673.21 323.892 1678.52 323.854C1680.54 323.842 1682.56 323.836 1684.59 323.836C1687.41 323.836 1690.24 323.818 1693.07 323.795C1693.9 323.8 1694.74 323.805 1695.6 323.809C1700.21 323.752 1703.26 323.395 1707 320.395C1709.88 316.019 1710.5 312.596 1710 307.395C1709.01 306.405 1709.01 306.405 1708 305.395C1708 304.405 1708 303.415 1708 302.395C1702.93 300.736 1698.41 300.106 1693.07 300.136C1691.91 300.131 1691.92 300.131 1690.74 300.125C1688.18 300.115 1685.62 300.119 1683.06 300.124C1681.22 300.119 1679.37 300.114 1677.53 300.108C1673.57 300.096 1669.62 300.091 1665.66 300.09C1659.4 300.088 1653.13 300.07 1646.87 300.049C1631.32 300 1615.77 299.969 1600.22 299.948C1588.13 299.931 1576.04 299.908 1563.95 299.865C1557.73 299.843 1551.51 299.835 1545.28 299.837C1541.41 299.835 1537.54 299.821 1533.67 299.804C1531.87 299.798 1530.08 299.798 1528.29 299.803C1525.84 299.809 1523.38 299.797 1520.93 299.78C1520.23 299.786 1519.52 299.792 1518.79 299.799C1512.72 299.724 1507.99 298.381 1503.62 294.02C1501.93 291.282 1501.16 289.602 1501 286.395C1502.07 282.405 1503.82 280.012 1507 277.395C1510.25 276.292 1513.32 276.268 1516.74 276.266Z" fill="#1D1D1D"/>
<path d="M1934 324.395C1943.41 324.21 1943.41 324.21 1948 325.395C1947.67 326.385 1947.34 327.375 1947 328.395C1938.48 329.167 1930.06 329.519 1921.51 329.416C1920.34 329.407 1919.16 329.397 1917.96 329.387C1914.13 329.355 1910.31 329.314 1906.48 329.274C1903.81 329.249 1901.14 329.225 1898.47 329.202C1892.18 329.146 1885.9 329.085 1879.62 329.021C1872.46 328.949 1865.3 328.883 1858.14 328.818C1843.42 328.684 1828.71 328.542 1814 328.395C1814 328.065 1814 327.735 1814 327.395C1873.9 326.9 1873.9 326.9 1935 326.395C1934.5 325.405 1934.5 325.405 1934 324.395Z" fill="#1D1D1D"/>
<path d="M1605 326.395C1607.31 327.055 1609.62 327.715 1612 328.395C1609 330.395 1609 330.395 1606 330.395C1605.64 332.185 1605.28 333.977 1604.94 335.77C1604.74 336.767 1604.54 337.765 1604.34 338.793C1603.76 341.373 1603.76 341.373 1605 343.395C1604.01 343.395 1603.02 343.395 1602 343.395C1600.15 340.992 1599.14 338.972 1598.44 336.02C1599.32 331.898 1602.12 329.365 1605 326.395ZM1604 340.395C1606 341.395 1606 341.395 1606 341.395L1604 340.395Z" fill="#1D1D1D"/>
<path d="M1950 331.395C1951.88 331.582 1951.88 331.582 1954 332.395C1955.44 334.582 1955.44 334.582 1956 337.395C1954.52 341.365 1953.55 343.025 1950 345.395C1947.96 345.809 1947.96 345.809 1945.81 346.02C1944.55 346.143 1943.3 346.267 1942 346.395C1942.33 345.075 1942.66 343.755 1943 342.395C1943 343.055 1943 343.715 1943 344.395C1945.64 343.735 1948.28 343.075 1951 342.395C1949.68 342.395 1948.36 342.395 1947 342.395C1946.01 342.065 1945.02 341.735 1944 341.395C1946.31 340.735 1948.62 340.075 1951 339.395C1950.67 336.755 1950.34 334.115 1950 331.395Z" fill="#1D1D1D"/>
<path d="M1851 291.395C1852.32 291.395 1853.64 291.395 1855 291.395C1854.44 294.63 1853.63 296.373 1851 298.395C1850.01 298.395 1849.02 298.395 1848 298.395C1848 297.405 1848 296.415 1848 295.395C1849.32 294.735 1850.64 294.075 1852 293.395C1851.67 292.735 1851.34 292.075 1851 291.395Z" fill="#1D1D1D"/>
<path d="M1326.35 163.027C1327.66 163.024 1328.98 163.021 1330.33 163.017C1333.96 163.009 1337.58 163.019 1341.21 163.032C1345.13 163.043 1349.05 163.036 1352.97 163.032C1360.64 163.026 1368.31 163.037 1375.98 163.052C1384.92 163.07 1393.86 163.071 1402.79 163.072C1418.75 163.074 1434.71 163.089 1450.67 163.113C1466.14 163.137 1481.6 163.151 1497.07 163.154C1498.02 163.155 1498.98 163.155 1499.96 163.155C1501.88 163.155 1503.79 163.156 1505.71 163.156C1506.66 163.157 1507.61 163.157 1508.58 163.157C1509.53 163.157 1510.47 163.157 1511.44 163.158C1526.21 163.161 1540.97 163.173 1555.73 163.185C1561.07 163.19 1566.41 163.193 1571.75 163.196C1580.23 163.2 1588.7 163.208 1597.18 163.223C1601.05 163.229 1604.92 163.234 1608.79 163.235C1612.99 163.236 1617.2 163.245 1621.4 163.254C1622.61 163.253 1623.82 163.252 1625.07 163.251C1646.45 163.324 1646.45 163.324 1652 167.395C1652 168.055 1652 168.715 1652 169.395C1652.66 169.395 1653.32 169.395 1654 169.395C1655.85 173.094 1655.24 177.111 1654.5 181.082C1652.19 184.642 1648.9 186.045 1645 187.395C1641.06 187.97 1637.16 188.045 1633.19 188.082C1624.04 188.269 1624.04 188.269 1614.91 188.758C1614.03 188.819 1613.15 188.88 1612.24 188.943C1609.68 189.256 1609.68 189.256 1607.31 191.895C1605.3 197.249 1605.34 201.819 1606.75 207.332C1608.28 209.857 1609.27 210.328 1612 211.395C1614.62 211.685 1614.62 211.685 1617.51 211.626C1618.64 211.627 1619.76 211.628 1620.91 211.629C1622.14 211.62 1623.36 211.611 1624.63 211.602C1626.61 211.6 1628.6 211.599 1630.59 211.597C1632.72 211.594 1634.86 211.586 1636.99 211.577C1641.45 211.56 1645.9 211.563 1650.36 211.571C1663.03 211.59 1675.7 211.597 1688.36 211.549C1695.36 211.523 1702.36 211.522 1709.36 211.548C1713.06 211.561 1716.76 211.561 1720.46 211.53C1724.59 211.496 1728.72 211.516 1732.85 211.54C1734.07 211.521 1735.29 211.502 1736.55 211.482C1743.58 211.576 1747.52 212.545 1752.59 217.545C1754.88 220.545 1755.27 222.666 1755 226.395C1752.76 230.885 1750.45 233.177 1746 235.395C1743.26 235.768 1743.26 235.768 1740.23 235.766C1739.06 235.773 1737.9 235.78 1736.71 235.786C1735.44 235.778 1734.17 235.77 1732.86 235.762C1731.49 235.764 1730.12 235.767 1728.75 235.772C1725 235.781 1721.24 235.771 1717.48 235.757C1713.43 235.747 1709.38 235.753 1705.33 235.757C1697.39 235.763 1689.45 235.753 1681.51 235.737C1672.27 235.719 1663.02 235.718 1653.77 235.717C1637.27 235.716 1620.77 235.7 1604.27 235.676C1588.26 235.653 1572.26 235.638 1556.25 235.635C1554.77 235.634 1554.77 235.634 1553.26 235.634C1551.28 235.634 1549.29 235.633 1547.31 235.633C1546.33 235.633 1545.35 235.632 1544.34 235.632C1542.88 235.632 1542.88 235.632 1541.38 235.631C1526.12 235.628 1510.87 235.616 1495.61 235.604C1490.08 235.6 1484.56 235.596 1479.03 235.593C1470.26 235.589 1461.49 235.581 1452.72 235.567C1448.71 235.56 1444.7 235.555 1440.69 235.554C1437.02 235.553 1433.35 235.548 1429.68 235.539C1427.73 235.535 1425.78 235.536 1423.83 235.538C1406.34 235.48 1406.34 235.48 1402 231.957C1398.85 227.926 1398.48 225.541 1399 220.395C1401.38 217.582 1401.38 217.582 1404 215.395C1404.99 214.405 1404.99 214.405 1406 213.395C1410.46 212.082 1415.03 212.236 1419.64 212.221C1420.5 212.214 1421.36 212.208 1422.24 212.201C1424.1 212.187 1425.97 212.175 1427.83 212.165C1430.79 212.148 1433.74 212.125 1436.7 212.1C1445.1 212.029 1453.51 211.969 1461.92 211.918C1467.07 211.886 1472.21 211.844 1477.36 211.798C1479.31 211.782 1481.26 211.769 1483.22 211.761C1493.32 211.715 1503.09 211.61 1513 209.395C1515.26 200.068 1515.26 200.068 1512 191.395C1510.92 189.611 1510.92 189.611 1509 188.395C1506.37 188.099 1503.97 187.987 1501.34 188.009C1500.55 188.004 1499.77 187.999 1498.96 187.993C1496.31 187.979 1493.66 187.987 1491.01 187.994C1489.11 187.988 1487.22 187.981 1485.32 187.973C1481.23 187.958 1477.15 187.952 1473.06 187.953C1466.59 187.955 1460.12 187.936 1453.66 187.913C1441.08 187.872 1428.51 187.854 1415.94 187.837C1399.97 187.815 1383.99 187.781 1368.01 187.73C1361.59 187.71 1355.16 187.7 1348.74 187.699C1344.73 187.696 1340.73 187.685 1336.72 187.672C1334.87 187.668 1333.01 187.667 1331.16 187.67C1308.17 187.701 1308.17 187.701 1303.34 184.186C1300.01 180.678 1299 177.137 1299 172.395C1300.38 170.645 1300.38 170.645 1302 169.395C1302.33 168.405 1302.66 167.415 1303 166.395C1310.2 162.68 1318.46 162.975 1326.35 163.027Z" fill="#1D1D1D"/>
<path d="M1509 210.395C1510 213.395 1510 213.395 1510 217.395C1507.12 217.52 1507.12 217.52 1504 217.395C1503.01 216.405 1503.01 216.405 1502 215.395C1498.99 215.206 1496.07 215.143 1493.05 215.168C1492.13 215.167 1491.2 215.167 1490.24 215.167C1487.17 215.168 1484.1 215.184 1481.02 215.199C1478.9 215.203 1476.77 215.206 1474.64 215.208C1469.04 215.216 1463.43 215.235 1457.82 215.257C1452.11 215.278 1446.39 215.287 1440.67 215.297C1429.45 215.318 1418.22 215.353 1407 215.395C1410.1 212.273 1412.83 212.032 1417.12 211.969C1417.94 211.972 1418.75 211.975 1419.59 211.978C1420.89 211.965 1420.89 211.965 1422.21 211.952C1425.07 211.927 1427.93 211.923 1430.8 211.918C1432.79 211.904 1434.78 211.888 1436.78 211.871C1442.03 211.829 1447.28 211.804 1452.53 211.783C1460.92 211.748 1469.31 211.686 1477.7 211.625C1480.62 211.606 1483.55 211.594 1486.47 211.583C1488.28 211.573 1490.09 211.563 1491.89 211.552C1492.7 211.551 1493.51 211.55 1494.34 211.549C1499.3 211.514 1504.08 211.097 1509 210.395Z" fill="#1D1D1D"/>
<path d="M1750.05 214.996C1754.93 220.419 1754.93 220.419 1755.25 225.02C1753.7 229.2 1752.23 231.317 1749 234.395C1747.68 234.395 1746.36 234.395 1745 234.395C1745 233.405 1745 232.415 1745 231.395C1746.65 230.735 1748.3 230.075 1750 229.395C1750 227.745 1750 226.095 1750 224.395C1750.66 224.395 1751.32 224.395 1752 224.395C1751.67 222.745 1751.34 221.095 1751 219.395C1748.03 219.395 1745.06 219.395 1742 219.395C1742 218.075 1742 216.755 1742 215.395C1702.4 215.065 1662.8 214.735 1622 214.395C1622 214.065 1622 213.735 1622 213.395C1637.69 213.241 1653.38 213.093 1669.07 212.952C1676.36 212.886 1683.64 212.819 1690.93 212.746C1697.28 212.684 1703.63 212.624 1709.98 212.57C1713.34 212.54 1716.7 212.509 1720.06 212.474C1723.82 212.436 1727.57 212.403 1731.33 212.373C1733 212.353 1733 212.353 1734.7 212.334C1735.72 212.327 1736.75 212.32 1737.8 212.312C1739.14 212.3 1739.14 212.3 1740.49 212.287C1744.21 212.447 1747.08 212.677 1750.05 214.996Z" fill="#1D1D1D"/>
<path d="M1399 220.395C1399.33 221.055 1399.66 221.715 1400 222.395C1400.66 222.395 1401.32 222.395 1402 222.395C1402 223.715 1402 225.035 1402 226.395C1402.64 226.642 1403.28 226.89 1403.94 227.145C1406 228.395 1406 228.395 1406.69 230.395C1406.79 231.055 1406.89 231.715 1407 232.395C1407.33 233.055 1407.66 233.715 1408 234.395C1405.75 234.27 1405.75 234.27 1403 233.395C1400 229.993 1399.04 228.073 1398.75 223.52C1398.83 222.488 1398.91 221.457 1399 220.395Z" fill="#1D1D1D"/>
<path d="M1509 210.395C1510 213.395 1510 213.395 1510 217.395C1507.19 217.707 1507.19 217.707 1504 217.395C1501 213.495 1501 213.495 1501 211.395C1503.64 211.065 1506.28 210.735 1509 210.395Z" fill="#1D1D1D"/>
<path d="M1308 164.395C1308.66 164.725 1309.32 165.055 1310 165.395C1308.51 166.88 1308.51 166.88 1307 168.395C1307.66 169.055 1308.32 169.715 1309 170.395C1307.02 170.725 1305.04 171.055 1303 171.395C1302.67 170.075 1302.34 168.755 1302 167.395C1303.96 166.327 1305.97 165.329 1308 164.395Z" fill="#1D1D1D"/>
<path d="M1606 192.395C1605.67 195.365 1605.34 198.335 1605 201.395C1604.34 200.075 1603.68 198.755 1603 197.395C1602.67 200.035 1602.34 202.675 1602 205.395C1601.67 205.395 1601.34 205.395 1601 205.395C1600.92 203.791 1600.86 202.187 1600.81 200.582C1600.78 199.689 1600.74 198.795 1600.71 197.875C1601 195.395 1601 195.395 1602.39 193.57C1604 192.395 1604 192.395 1606 192.395Z" fill="#1D1D1D"/>
<path d="M1512 187.395C1513.65 187.395 1515.3 187.395 1517 187.395C1517.62 189.27 1517.62 189.27 1518 191.395C1517.34 192.055 1516.68 192.715 1516 193.395C1514.68 192.735 1513.36 192.075 1512 191.395C1512 190.075 1512 188.755 1512 187.395Z" fill="#1D1D1D"/>
<path d="M1647 166.395C1648.67 166.681 1650.34 167.012 1652 167.395C1652.33 168.385 1652.66 169.375 1653 170.395C1651.02 170.725 1649.04 171.055 1647 171.395C1646.44 169.457 1646.44 169.457 1646 167.395C1646.33 167.065 1646.66 166.735 1647 166.395Z" fill="#1D1D1D"/>
</svg>
