<svg width="221" height="200" viewBox="0 0 221 200" fill="none" xmlns="http://www.w3.org/2000/svg">
<path d="M64.8438 56.5703C61.1979 56.5703 57.8125 57.3516 54.6875 58.9141C51.6927 60.4766 50.1953 63.3411 50.1953 67.5078C50.1953 70.8932 51.7578 73.6927 54.8828 75.9062C58.138 77.9896 62.1094 79.9427 66.7969 81.7656C71.6146 83.4583 76.7578 85.3464 82.2266 87.4297C87.8255 89.3828 92.9688 91.9219 97.6562 95.0469C102.474 98.0417 106.445 101.948 109.57 106.766C112.826 111.583 114.453 117.638 114.453 124.93C114.453 132.221 112.956 138.732 109.961 144.461C107.096 150.19 103.19 155.073 98.2422 159.109C93.4245 163.146 87.8906 166.271 81.6406 168.484C75.3906 170.698 68.8151 171.805 61.9141 171.805C55.2734 171.805 49.0234 171.479 43.1641 170.828C37.3047 170.047 32.1615 168.484 27.7344 166.141C23.4375 163.667 19.987 160.086 17.3828 155.398C14.7786 150.581 13.4766 144.201 13.4766 136.258C13.4766 135.346 13.6068 134.5 13.8672 133.719C14.1276 132.938 14.7786 132.547 15.8203 132.547C18.8151 132.547 21.875 133.068 25 134.109C28.125 135.151 31.1198 136.128 33.9844 137.039C37.6302 138.081 41.276 139.057 44.9219 139.969C48.5677 140.88 52.3438 141.336 56.25 141.336C58.0729 141.336 59.9609 141.206 61.9141 140.945C63.8672 140.555 65.625 139.904 67.1875 138.992C68.75 138.081 70.0521 136.909 71.0938 135.477C72.2656 133.914 72.8516 132.026 72.8516 129.812C72.8516 127.729 72.4609 125.906 71.6797 124.344C71.0286 122.781 69.8568 121.414 68.1641 120.242C65.6901 118.289 62.9557 116.987 59.9609 116.336C57.0964 115.555 54.1667 114.773 51.1719 113.992C46.224 112.56 41.2109 110.542 36.1328 107.938C31.1849 105.333 26.6927 102.208 22.6562 98.5625C18.6198 94.9167 15.2995 90.75 12.6953 86.0625C10.2214 81.2448 8.98438 76.0365 8.98438 70.4375C8.98438 63.0156 10.5469 56.6354 13.6719 51.2969C16.9271 45.8281 21.0938 41.2708 26.1719 37.625C31.3802 33.849 37.1745 31.1146 43.5547 29.4219C50.0651 27.599 56.6406 26.6875 63.2812 26.6875C69.401 26.6875 75.2604 26.8828 80.8594 27.2734C86.4583 27.5339 91.3411 28.6406 95.5078 30.5938C99.8047 32.5469 103.19 35.6719 105.664 39.9688C108.268 44.2656 109.57 50.2552 109.57 57.9375C109.57 61.3229 107.878 63.0156 104.492 63.0156C101.497 63.0156 98.5026 62.6901 95.5078 62.0391C92.513 61.2578 89.5833 60.5417 86.7188 59.8906C83.2031 58.9792 79.5573 58.1979 75.7812 57.5469C72.1354 56.8958 68.4896 56.5703 64.8438 56.5703Z" fill="#F6F6F6"/>
<circle cx="180" cy="100" r="41" fill="#BB4A34"/>
</svg>
