<svg width="244" height="355" viewBox="0 0 244 355" fill="none" xmlns="http://www.w3.org/2000/svg">
<path d="M64.8438 56.5703C61.1979 56.5703 57.8125 57.3516 54.6875 58.9141C51.6927 60.4766 50.1953 63.3411 50.1953 67.5078C50.1953 70.8932 51.7578 73.6927 54.8828 75.9062C58.138 77.9896 62.1094 79.9427 66.7969 81.7656C71.6146 83.4583 76.7578 85.3464 82.2266 87.4297C87.8255 89.3828 92.9688 91.9219 97.6562 95.0469C102.474 98.0417 106.445 101.948 109.57 106.766C112.826 111.583 114.453 117.638 114.453 124.93C114.453 132.221 112.956 138.732 109.961 144.461C107.096 150.19 103.19 155.073 98.2422 159.109C93.4245 163.146 87.8906 166.271 81.6406 168.484C75.3906 170.698 68.8151 171.805 61.9141 171.805C55.2734 171.805 49.0234 171.479 43.1641 170.828C37.3047 170.047 32.1615 168.484 27.7344 166.141C23.4375 163.667 19.987 160.086 17.3828 155.398C14.7786 150.581 13.4766 144.201 13.4766 136.258C13.4766 135.346 13.6068 134.5 13.8672 133.719C14.1276 132.938 14.7786 132.547 15.8203 132.547C18.8151 132.547 21.875 133.068 25 134.109C28.125 135.151 31.1198 136.128 33.9844 137.039C37.6302 138.081 41.276 139.057 44.9219 139.969C48.5677 140.88 52.3438 141.336 56.25 141.336C58.0729 141.336 59.9609 141.206 61.9141 140.945C63.8672 140.555 65.625 139.904 67.1875 138.992C68.75 138.081 70.0521 136.909 71.0938 135.477C72.2656 133.914 72.8516 132.026 72.8516 129.812C72.8516 127.729 72.4609 125.906 71.6797 124.344C71.0286 122.781 69.8568 121.414 68.1641 120.242C65.6901 118.289 62.9557 116.987 59.9609 116.336C57.0964 115.555 54.1667 114.773 51.1719 113.992C46.224 112.56 41.2109 110.542 36.1328 107.938C31.1849 105.333 26.6927 102.208 22.6562 98.5625C18.6198 94.9167 15.2995 90.75 12.6953 86.0625C10.2214 81.2448 8.98438 76.0365 8.98438 70.4375C8.98438 63.0156 10.5469 56.6354 13.6719 51.2969C16.9271 45.8281 21.0938 41.2708 26.1719 37.625C31.3802 33.849 37.1745 31.1146 43.5547 29.4219C50.0651 27.599 56.6406 26.6875 63.2812 26.6875C69.401 26.6875 75.2604 26.8828 80.8594 27.2734C86.4583 27.5339 91.3411 28.6406 95.5078 30.5938C99.8047 32.5469 103.19 35.6719 105.664 39.9688C108.268 44.2656 109.57 50.2552 109.57 57.9375C109.57 61.3229 107.878 63.0156 104.492 63.0156C101.497 63.0156 98.5026 62.6901 95.5078 62.0391C92.513 61.2578 89.5833 60.5417 86.7188 59.8906C83.2031 58.9792 79.5573 58.1979 75.7812 57.5469C72.1354 56.8958 68.4896 56.5703 64.8438 56.5703Z" fill="#F6F6F6"/>
<path d="M159.516 152.078C159.516 154.292 159.385 156.44 159.125 158.523C158.995 160.477 158.539 162.234 157.758 163.797C157.107 165.229 156 166.401 154.438 167.312C152.875 168.224 150.661 168.68 147.797 168.68C145.193 168.68 142.589 168.615 139.984 168.484C137.38 168.224 134.841 167.508 132.367 166.336C130.023 165.424 128.07 163.341 126.508 160.086C124.945 156.701 123.643 152.729 122.602 148.172C121.69 143.484 120.974 138.471 120.453 133.133C120.062 127.794 119.802 122.651 119.672 117.703C119.542 112.755 119.477 108.198 119.477 104.031C119.477 99.8646 119.477 96.7396 119.477 94.6562C119.477 87.625 119.672 80.6589 120.062 73.7578C120.453 66.8568 121.169 60.0208 122.211 53.25C122.471 51.6875 122.797 50.0599 123.188 48.3672C123.578 46.6745 124.034 44.9167 124.555 43.0938C125.206 41.2708 125.987 39.5781 126.898 38.0156C127.81 36.4531 128.786 35.151 129.828 34.1094C132.042 32.2865 135.167 30.8542 139.203 29.8125C143.37 28.7708 147.732 27.9896 152.289 27.4688C156.977 26.9479 161.534 26.6875 165.961 26.6875C170.518 26.5573 174.294 26.4922 177.289 26.4922C184.06 26.4922 190.766 27.4688 197.406 29.4219C204.047 31.375 210.036 34.3047 215.375 38.2109C220.714 42.1172 225.01 47 228.266 52.8594C231.651 58.5885 233.344 65.1641 233.344 72.5859C233.344 75.3203 233.083 77.9245 232.562 80.3984C232.042 82.7422 231.065 85.0859 229.633 87.4297C227.419 90.8151 224.88 94.0052 222.016 97C219.151 99.8646 216.026 102.404 212.641 104.617C212.25 104.878 211.469 105.398 210.297 106.18C209.255 106.831 208.734 107.417 208.734 107.938C208.734 108.328 209.06 108.914 209.711 109.695C210.362 110.477 211.078 111.258 211.859 112.039C212.641 112.82 213.357 113.602 214.008 114.383C214.789 115.034 215.31 115.49 215.57 115.75C217.003 117.443 218.63 120.307 220.453 124.344C222.276 128.38 223.969 132.742 225.531 137.43C227.224 142.117 228.591 146.609 229.633 150.906C230.805 155.203 231.391 158.523 231.391 160.867C231.391 162.56 230.284 163.927 228.07 164.969C225.857 166.01 223.318 166.857 220.453 167.508C217.589 168.029 214.724 168.419 211.859 168.68C208.995 168.81 206.977 168.875 205.805 168.875C201.508 168.875 198.253 167.703 196.039 165.359C193.826 162.885 192.068 159.826 190.766 156.18C189.594 152.534 188.552 148.628 187.641 144.461C186.859 140.294 185.622 136.453 183.93 132.938C182.237 129.292 179.893 126.297 176.898 123.953C173.904 121.479 169.607 120.242 164.008 120.242C162.836 120.242 161.859 120.958 161.078 122.391C160.297 123.693 159.776 125.32 159.516 127.273C159.255 129.227 159.06 131.18 158.93 133.133C158.93 134.956 158.93 136.323 158.93 137.234C158.93 139.578 158.995 141.987 159.125 144.461C159.385 146.935 159.516 149.474 159.516 152.078ZM159.125 82.7422C159.125 84.6953 159.385 86.7786 159.906 88.9922C160.557 91.2057 162.12 92.3125 164.594 92.3125C168.24 92.3125 171.755 92.1823 175.141 91.9219C178.656 91.5312 181.716 90.6849 184.32 89.3828C186.924 88.0807 189.008 86.1276 190.57 83.5234C192.133 80.9193 192.914 77.3385 192.914 72.7812C192.914 70.1771 192.328 67.8333 191.156 65.75C189.984 63.5365 188.422 61.7135 186.469 60.2812C184.516 58.7188 182.302 57.5469 179.828 56.7656C177.484 55.9844 175.141 55.5938 172.797 55.5938H166.938C163.943 55.5938 161.859 56.6354 160.688 58.7188C159.646 60.6719 159.125 62.9505 159.125 65.5547V82.7422Z" fill="#F6F6F6"/>
<path d="M13.4766 242.625C13.4766 239.37 13.5417 234.943 13.6719 229.344C13.9323 223.615 14.4531 217.82 15.2344 211.961C16.0156 206.102 17.3177 200.763 19.1406 195.945C20.9635 190.997 23.4375 187.742 26.5625 186.18C28.6458 185.138 31.3802 184.357 34.7656 183.836C38.151 183.185 41.6667 182.729 45.3125 182.469C49.0885 182.208 52.7344 182.013 56.25 181.883C59.8958 181.753 62.9557 181.688 65.4297 181.688C72.9818 181.688 80.4688 182.729 87.8906 184.812C95.4427 186.896 102.148 190.086 108.008 194.383C113.997 198.68 118.75 204.018 122.266 210.398C125.911 216.779 127.734 224.266 127.734 232.859C127.734 242.104 126.042 249.656 122.656 255.516C119.271 261.375 114.974 266.062 109.766 269.578C104.557 272.964 98.8932 275.372 92.7734 276.805C86.7839 278.237 81.0547 279.214 75.5859 279.734C70.2474 280.255 65.6901 280.581 61.9141 280.711C58.138 280.711 55.9245 281.102 55.2734 281.883C54.8828 282.404 54.4922 283.25 54.1016 284.422C53.8411 285.594 53.6458 286.896 53.5156 288.328C53.3854 289.76 53.2552 291.128 53.125 292.43C53.125 293.732 53.125 294.708 53.125 295.359C53.125 297.964 53.1901 300.503 53.3203 302.977C53.5807 305.451 53.7109 307.924 53.7109 310.398C53.7109 314.695 52.9297 318.016 51.3672 320.359C49.9349 322.573 46.875 323.68 42.1875 323.68C39.5833 323.68 36.9141 323.615 34.1797 323.484C31.5755 323.224 29.0365 322.508 26.5625 321.336C23.4375 320.164 20.9635 317.039 19.1406 311.961C17.4479 306.883 16.1458 301.349 15.2344 295.359C14.4531 289.24 13.9323 283.25 13.6719 277.391C13.5417 271.531 13.4766 267.104 13.4766 264.109V242.625ZM53.125 242.43C53.125 247.638 54.1016 250.828 56.0547 252C58.0078 253.172 61.3932 253.758 66.2109 253.758C73.2422 253.758 78.9714 251.544 83.3984 247.117C87.9557 242.69 90.2344 236.896 90.2344 229.734C90.2344 226.609 89.4531 223.875 87.8906 221.531C86.3281 219.057 84.3099 217.039 81.8359 215.477C79.4922 213.784 76.8229 212.547 73.8281 211.766C70.8333 210.984 67.9688 210.594 65.2344 210.594H60.1562C57.4219 210.594 55.599 211.505 54.6875 213.328C53.776 215.021 53.2552 216.974 53.125 219.188V242.43Z" fill="#F6F6F6"/>
<circle cx="188" cy="255" r="41" fill="#BB4A34"/>
</svg>
