<?xml version="1.0" encoding="UTF-8"?><svg id="Layer_1" xmlns="http://www.w3.org/2000/svg" xmlns:xlink="http://www.w3.org/1999/xlink" viewBox="0 0 305 277"><defs><style>.cls-1{fill:none;}.cls-2{fill:#f6f6f6;}.cls-3{clip-path:url(#clippath);}</style><clipPath id="clippath"><rect class="cls-1" width="305" height="277"/></clipPath></defs><g class="cls-3"><path class="cls-1" d="M305,0H0v277h305V0Z"/></g><g id="Generative_Object"><path class="cls-2" d="M84.1,30.6c24.1-2.1,51.4,1.4,75.7.2l-.7,36.1h-74.1c-11,2.8-16,12.9-11.9,23.5,5.5,14.2,22.7,9.2,34.7,10,64.8,4.3,73.1,88.2,13.1,106.7-28.3,3.1-57.2.6-85.8,1.4v-36.4h74.1c21.1-2.6,19.7-32.3,1.9-35s-29.4,3.5-48.5-7c-46.2-25.5-31.5-95.1,21.4-99.8l.1.3Z"/><path class="cls-2" d="M131.1,80.5l76.9.5c44.4,3,74.1,57.6,42.2,93-6,6.6-13.7,10-21,14l40.8,48.7h-46.6l-52.2-62.9-.2,62.7h-40.6v-20c24.4-10.1,42-32.9,42.4-59.7,14.7-3.5,38.7,5.4,48.9-8.9,6.9-9.5,3.1-22.9-7.2-28.2-10.4-5.4-31.4-.8-43.4-2.3l-.5,19.6c-4.5-14-13.1-26.8-25.2-35.4-2.6-1.8-14.8-7.4-15.1-8.2s-.2-12.4.7-12.8l.1-.1Z"/></g></svg>