<svg width="244" height="301" viewBox="0 0 244 301" fill="none" xmlns="http://www.w3.org/2000/svg">
<path d="M64.8438 30.0781C61.1979 30.0781 57.8125 30.8594 54.6875 32.4219C51.6927 33.9844 50.1953 36.849 50.1953 41.0156C50.1953 44.401 51.7578 47.2005 54.8828 49.4141C58.138 51.4974 62.1094 53.4505 66.7969 55.2734C71.6146 56.9661 76.7578 58.8542 82.2266 60.9375C87.8255 62.8906 92.9688 65.4297 97.6562 68.5547C102.474 71.5495 106.445 75.4557 109.57 80.2734C112.826 85.0911 114.453 91.1458 114.453 98.4375C114.453 105.729 112.956 112.24 109.961 117.969C107.096 123.698 103.19 128.581 98.2422 132.617C93.4245 136.654 87.8906 139.779 81.6406 141.992C75.3906 144.206 68.8151 145.312 61.9141 145.312C55.2734 145.312 49.0234 144.987 43.1641 144.336C37.3047 143.555 32.1615 141.992 27.7344 139.648C23.4375 137.174 19.987 133.594 17.3828 128.906C14.7786 124.089 13.4766 117.708 13.4766 109.766C13.4766 108.854 13.6068 108.008 13.8672 107.227C14.1276 106.445 14.7786 106.055 15.8203 106.055C18.8151 106.055 21.875 106.576 25 107.617C28.125 108.659 31.1198 109.635 33.9844 110.547C37.6302 111.589 41.276 112.565 44.9219 113.477C48.5677 114.388 52.3438 114.844 56.25 114.844C58.0729 114.844 59.9609 114.714 61.9141 114.453C63.8672 114.062 65.625 113.411 67.1875 112.5C68.75 111.589 70.0521 110.417 71.0938 108.984C72.2656 107.422 72.8516 105.534 72.8516 103.32C72.8516 101.237 72.4609 99.4141 71.6797 97.8516C71.0286 96.2891 69.8568 94.9219 68.1641 93.75C65.6901 91.7969 62.9557 90.4948 59.9609 89.8438C57.0964 89.0625 54.1667 88.2812 51.1719 87.5C46.224 86.0677 41.2109 84.0495 36.1328 81.4453C31.1849 78.8411 26.6927 75.7161 22.6562 72.0703C18.6198 68.4245 15.2995 64.2578 12.6953 59.5703C10.2214 54.7526 8.98438 49.5443 8.98438 43.9453C8.98438 36.5234 10.5469 30.1432 13.6719 24.8047C16.9271 19.3359 21.0938 14.7786 26.1719 11.1328C31.3802 7.35677 37.1745 4.6224 43.5547 2.92969C50.0651 1.10677 56.6406 0.195312 63.2812 0.195312C69.401 0.195312 75.2604 0.390625 80.8594 0.78125C86.4583 1.04167 91.3411 2.14844 95.5078 4.10156C99.8047 6.05469 103.19 9.17969 105.664 13.4766C108.268 17.7734 109.57 23.763 109.57 31.4453C109.57 34.8307 107.878 36.5234 104.492 36.5234C101.497 36.5234 98.5026 36.1979 95.5078 35.5469C92.513 34.7656 89.5833 34.0495 86.7188 33.3984C83.2031 32.487 79.5573 31.7057 75.7812 31.0547C72.1354 30.4036 68.4896 30.0781 64.8438 30.0781Z" fill="#F6F6F6"/>
<path d="M159.516 125.586C159.516 127.799 159.385 129.948 159.125 132.031C158.995 133.984 158.539 135.742 157.758 137.305C157.107 138.737 156 139.909 154.438 140.82C152.875 141.732 150.661 142.188 147.797 142.188C145.193 142.188 142.589 142.122 139.984 141.992C137.38 141.732 134.841 141.016 132.367 139.844C130.023 138.932 128.07 136.849 126.508 133.594C124.945 130.208 123.643 126.237 122.602 121.68C121.69 116.992 120.974 111.979 120.453 106.641C120.062 101.302 119.802 96.1589 119.672 91.2109C119.542 86.263 119.477 81.7057 119.477 77.5391C119.477 73.3724 119.477 70.2474 119.477 68.1641C119.477 61.1328 119.672 54.1667 120.062 47.2656C120.453 40.3646 121.169 33.5286 122.211 26.7578C122.471 25.1953 122.797 23.5677 123.188 21.875C123.578 20.1823 124.034 18.4245 124.555 16.6016C125.206 14.7786 125.987 13.0859 126.898 11.5234C127.81 9.96094 128.786 8.65885 129.828 7.61719C132.042 5.79427 135.167 4.36198 139.203 3.32031C143.37 2.27865 147.732 1.4974 152.289 0.976562C156.977 0.455729 161.534 0.195312 165.961 0.195312C170.518 0.0651042 174.294 0 177.289 0C184.06 0 190.766 0.976562 197.406 2.92969C204.047 4.88281 210.036 7.8125 215.375 11.7188C220.714 15.625 225.01 20.5078 228.266 26.3672C231.651 32.0964 233.344 38.6719 233.344 46.0938C233.344 48.8281 233.083 51.4323 232.562 53.9062C232.042 56.25 231.065 58.5938 229.633 60.9375C227.419 64.3229 224.88 67.513 222.016 70.5078C219.151 73.3724 216.026 75.9115 212.641 78.125C212.25 78.3854 211.469 78.9062 210.297 79.6875C209.255 80.3385 208.734 80.9245 208.734 81.4453C208.734 81.8359 209.06 82.4219 209.711 83.2031C210.362 83.9844 211.078 84.7656 211.859 85.5469C212.641 86.3281 213.357 87.1094 214.008 87.8906C214.789 88.5417 215.31 88.9974 215.57 89.2578C217.003 90.9505 218.63 93.8151 220.453 97.8516C222.276 101.888 223.969 106.25 225.531 110.938C227.224 115.625 228.591 120.117 229.633 124.414C230.805 128.711 231.391 132.031 231.391 134.375C231.391 136.068 230.284 137.435 228.07 138.477C225.857 139.518 223.318 140.365 220.453 141.016C217.589 141.536 214.724 141.927 211.859 142.188C208.995 142.318 206.977 142.383 205.805 142.383C201.508 142.383 198.253 141.211 196.039 138.867C193.826 136.393 192.068 133.333 190.766 129.688C189.594 126.042 188.552 122.135 187.641 117.969C186.859 113.802 185.622 109.961 183.93 106.445C182.237 102.799 179.893 99.8047 176.898 97.4609C173.904 94.987 169.607 93.75 164.008 93.75C162.836 93.75 161.859 94.4661 161.078 95.8984C160.297 97.2005 159.776 98.8281 159.516 100.781C159.255 102.734 159.06 104.688 158.93 106.641C158.93 108.464 158.93 109.831 158.93 110.742C158.93 113.086 158.995 115.495 159.125 117.969C159.385 120.443 159.516 122.982 159.516 125.586ZM159.125 56.25C159.125 58.2031 159.385 60.2865 159.906 62.5C160.557 64.7135 162.12 65.8203 164.594 65.8203C168.24 65.8203 171.755 65.6901 175.141 65.4297C178.656 65.0391 181.716 64.1927 184.32 62.8906C186.924 61.5885 189.008 59.6354 190.57 57.0312C192.133 54.4271 192.914 50.8464 192.914 46.2891C192.914 43.6849 192.328 41.3411 191.156 39.2578C189.984 37.0443 188.422 35.2214 186.469 33.7891C184.516 32.2266 182.302 31.0547 179.828 30.2734C177.484 29.4922 175.141 29.1016 172.797 29.1016H166.938C163.943 29.1016 161.859 30.1432 160.688 32.2266C159.646 34.1797 159.125 36.4583 159.125 39.0625V56.25Z" fill="#F6F6F6"/>
<path d="M13.4766 216.133C13.4766 212.878 13.5417 208.451 13.6719 202.852C13.9323 197.122 14.4531 191.328 15.2344 185.469C16.0156 179.609 17.3177 174.271 19.1406 169.453C20.9635 164.505 23.4375 161.25 26.5625 159.688C28.6458 158.646 31.3802 157.865 34.7656 157.344C38.151 156.693 41.6667 156.237 45.3125 155.977C49.0885 155.716 52.7344 155.521 56.25 155.391C59.8958 155.26 62.9557 155.195 65.4297 155.195C72.9818 155.195 80.4688 156.237 87.8906 158.32C95.4427 160.404 102.148 163.594 108.008 167.891C113.997 172.188 118.75 177.526 122.266 183.906C125.911 190.286 127.734 197.773 127.734 206.367C127.734 215.612 126.042 223.164 122.656 229.023C119.271 234.883 114.974 239.57 109.766 243.086C104.557 246.471 98.8932 248.88 92.7734 250.312C86.7839 251.745 81.0547 252.721 75.5859 253.242C70.2474 253.763 65.6901 254.089 61.9141 254.219C58.138 254.219 55.9245 254.609 55.2734 255.391C54.8828 255.911 54.4922 256.758 54.1016 257.93C53.8411 259.102 53.6458 260.404 53.5156 261.836C53.3854 263.268 53.2552 264.635 53.125 265.938C53.125 267.24 53.125 268.216 53.125 268.867C53.125 271.471 53.1901 274.01 53.3203 276.484C53.5807 278.958 53.7109 281.432 53.7109 283.906C53.7109 288.203 52.9297 291.523 51.3672 293.867C49.9349 296.081 46.875 297.188 42.1875 297.188C39.5833 297.188 36.9141 297.122 34.1797 296.992C31.5755 296.732 29.0365 296.016 26.5625 294.844C23.4375 293.672 20.9635 290.547 19.1406 285.469C17.4479 280.391 16.1458 274.857 15.2344 268.867C14.4531 262.747 13.9323 256.758 13.6719 250.898C13.5417 245.039 13.4766 240.612 13.4766 237.617V216.133ZM53.125 215.938C53.125 221.146 54.1016 224.336 56.0547 225.508C58.0078 226.68 61.3932 227.266 66.2109 227.266C73.2422 227.266 78.9714 225.052 83.3984 220.625C87.9557 216.198 90.2344 210.404 90.2344 203.242C90.2344 200.117 89.4531 197.383 87.8906 195.039C86.3281 192.565 84.3099 190.547 81.8359 188.984C79.4922 187.292 76.8229 186.055 73.8281 185.273C70.8333 184.492 67.9688 184.102 65.2344 184.102H60.1562C57.4219 184.102 55.599 185.013 54.6875 186.836C53.776 188.529 53.2552 190.482 53.125 192.695V215.938Z" fill="#F6F6F6"/>
<circle cx="188" cy="228.508" r="41" fill="#BB4A34"/>
</svg>
